<svg width="157" height="182" viewBox="0 0 157 182" fill="none" xmlns="http://www.w3.org/2000/svg">
<g opacity="0.1">
<rect x="-3" width="6" height="6" fill="#32445F"/>
<rect x="-3" y="22" width="6" height="6" fill="#32445F"/>
<rect x="-3" y="44" width="6" height="6" fill="#32445F"/>
<rect x="-3" y="66" width="6" height="6" fill="#32445F"/>
<rect x="-3" y="88" width="6" height="6" fill="#32445F"/>
<rect x="-3" y="110" width="6" height="6" fill="#32445F"/>
<rect x="-3" y="132" width="6" height="6" fill="#32445F"/>
<rect x="-3" y="154" width="6" height="6" fill="#32445F"/>
<rect x="-3" y="176" width="6" height="6" fill="#32445F"/>
<rect x="19" width="6" height="6" fill="#32445F"/>
<rect x="19" y="22" width="6" height="6" fill="#32445F"/>
<rect x="19" y="44" width="6" height="6" fill="#32445F"/>
<rect x="19" y="66" width="6" height="6" fill="#32445F"/>
<rect x="19" y="88" width="6" height="6" fill="#32445F"/>
<rect x="19" y="110" width="6" height="6" fill="#32445F"/>
<rect x="19" y="132" width="6" height="6" fill="#32445F"/>
<rect x="19" y="154" width="6" height="6" fill="#32445F"/>
<rect x="19" y="176" width="6" height="6" fill="#32445F"/>
<rect x="41" width="6" height="6" fill="#32445F"/>
<rect x="41" y="22" width="6" height="6" fill="#32445F"/>
<rect x="41" y="44" width="6" height="6" fill="#32445F"/>
<rect x="41" y="66" width="6" height="6" fill="#32445F"/>
<rect x="41" y="88" width="6" height="6" fill="#32445F"/>
<rect x="41" y="110" width="6" height="6" fill="#32445F"/>
<rect x="41" y="132" width="6" height="6" fill="#32445F"/>
<rect x="41" y="154" width="6" height="6" fill="#32445F"/>
<rect x="41" y="176" width="6" height="6" fill="#32445F"/>
<rect x="63" width="6" height="6" fill="#32445F"/>
<rect x="63" y="22" width="6" height="6" fill="#32445F"/>
<rect x="63" y="44" width="6" height="6" fill="#32445F"/>
<rect x="63" y="66" width="6" height="6" fill="#32445F"/>
<rect x="63" y="88" width="6" height="6" fill="#32445F"/>
<rect x="63" y="110" width="6" height="6" fill="#32445F"/>
<rect x="63" y="132" width="6" height="6" fill="#32445F"/>
<rect x="63" y="154" width="6" height="6" fill="#32445F"/>
<rect x="63" y="176" width="6" height="6" fill="#32445F"/>
<rect x="85" width="6" height="6" fill="#32445F"/>
<rect x="85" y="22" width="6" height="6" fill="#32445F"/>
<rect x="85" y="44" width="6" height="6" fill="#32445F"/>
<rect x="85" y="66" width="6" height="6" fill="#32445F"/>
<rect x="85" y="88" width="6" height="6" fill="#32445F"/>
<rect x="85" y="110" width="6" height="6" fill="#32445F"/>
<rect x="85" y="132" width="6" height="6" fill="#32445F"/>
<rect x="85" y="154" width="6" height="6" fill="#32445F"/>
<rect x="85" y="176" width="6" height="6" fill="#32445F"/>
<rect x="107" width="6" height="6" fill="#32445F"/>
<rect x="107" y="22" width="6" height="6" fill="#32445F"/>
<rect x="107" y="44" width="6" height="6" fill="#32445F"/>
<rect x="107" y="66" width="6" height="6" fill="#32445F"/>
<rect x="107" y="88" width="6" height="6" fill="#32445F"/>
<rect x="107" y="110" width="6" height="6" fill="#32445F"/>
<rect x="107" y="132" width="6" height="6" fill="#32445F"/>
<rect x="107" y="154" width="6" height="6" fill="#32445F"/>
<rect x="107" y="176" width="6" height="6" fill="#32445F"/>
<rect x="129" width="6" height="6" fill="#32445F"/>
<rect x="129" y="22" width="6" height="6" fill="#32445F"/>
<rect x="129" y="44" width="6" height="6" fill="#32445F"/>
<rect x="129" y="66" width="6" height="6" fill="#32445F"/>
<rect x="129" y="88" width="6" height="6" fill="#32445F"/>
<rect x="129" y="110" width="6" height="6" fill="#32445F"/>
<rect x="129" y="132" width="6" height="6" fill="#32445F"/>
<rect x="129" y="154" width="6" height="6" fill="#32445F"/>
<rect x="129" y="176" width="6" height="6" fill="#32445F"/>
<rect x="151" width="6" height="6" fill="#32445F"/>
<rect x="151" y="22" width="6" height="6" fill="#32445F"/>
<rect x="151" y="44" width="6" height="6" fill="#32445F"/>
<rect x="151" y="66" width="6" height="6" fill="#32445F"/>
<rect x="151" y="88" width="6" height="6" fill="#32445F"/>
<rect x="151" y="110" width="6" height="6" fill="#32445F"/>
<rect x="151" y="132" width="6" height="6" fill="#32445F"/>
<rect x="151" y="154" width="6" height="6" fill="#32445F"/>
<rect x="151" y="176" width="6" height="6" fill="#32445F"/>
</g>
</svg>
