<svg width="138" height="292" viewBox="0 0 138 292" fill="none" xmlns="http://www.w3.org/2000/svg">
<g opacity="0.1">
<rect x="138" width="6" height="6" transform="rotate(90 138 0)" fill="#32445F"/>
<rect x="116" width="6" height="6" transform="rotate(90 116 0)" fill="#32445F"/>
<rect x="94" width="6" height="6" transform="rotate(90 94 0)" fill="#32445F"/>
<rect x="72" width="6" height="6" transform="rotate(90 72 0)" fill="#32445F"/>
<rect x="50" width="6" height="6" transform="rotate(90 50 0)" fill="#32445F"/>
<rect x="28" width="6" height="6" transform="rotate(90 28 0)" fill="#32445F"/>
<rect x="6" width="6" height="6" transform="rotate(90 6 0)" fill="#32445F"/>
<rect x="138" y="22" width="6" height="6" transform="rotate(90 138 22)" fill="#32445F"/>
<rect x="116" y="22" width="6" height="6" transform="rotate(90 116 22)" fill="#32445F"/>
<rect x="94" y="22" width="6" height="6" transform="rotate(90 94 22)" fill="#32445F"/>
<rect x="72" y="22" width="6" height="6" transform="rotate(90 72 22)" fill="#32445F"/>
<rect x="50" y="22" width="6" height="6" transform="rotate(90 50 22)" fill="#32445F"/>
<rect x="28" y="22" width="6" height="6" transform="rotate(90 28 22)" fill="#32445F"/>
<rect x="6" y="22" width="6" height="6" transform="rotate(90 6 22)" fill="#32445F"/>
<rect x="138" y="44" width="6" height="6" transform="rotate(90 138 44)" fill="#32445F"/>
<rect x="116" y="44" width="6" height="6" transform="rotate(90 116 44)" fill="#32445F"/>
<rect x="94" y="44" width="6" height="6" transform="rotate(90 94 44)" fill="#32445F"/>
<rect x="72" y="44" width="6" height="6" transform="rotate(90 72 44)" fill="#32445F"/>
<rect x="50" y="44" width="6" height="6" transform="rotate(90 50 44)" fill="#32445F"/>
<rect x="28" y="44" width="6" height="6" transform="rotate(90 28 44)" fill="#32445F"/>
<rect x="6" y="44" width="6" height="6" transform="rotate(90 6 44)" fill="#32445F"/>
<rect x="138" y="66" width="6" height="6" transform="rotate(90 138 66)" fill="#32445F"/>
<rect x="116" y="66" width="6" height="6" transform="rotate(90 116 66)" fill="#32445F"/>
<rect x="94" y="66" width="6" height="6" transform="rotate(90 94 66)" fill="#32445F"/>
<rect x="72" y="66" width="6" height="6" transform="rotate(90 72 66)" fill="#32445F"/>
<rect x="50" y="66" width="6" height="6" transform="rotate(90 50 66)" fill="#32445F"/>
<rect x="28" y="66" width="6" height="6" transform="rotate(90 28 66)" fill="#32445F"/>
<rect x="6" y="66" width="6" height="6" transform="rotate(90 6 66)" fill="#32445F"/>
<rect x="138" y="88" width="6" height="6" transform="rotate(90 138 88)" fill="#32445F"/>
<rect x="116" y="88" width="6" height="6" transform="rotate(90 116 88)" fill="#32445F"/>
<rect x="94" y="88" width="6" height="6" transform="rotate(90 94 88)" fill="#32445F"/>
<rect x="72" y="88" width="6" height="6" transform="rotate(90 72 88)" fill="#32445F"/>
<rect x="50" y="88" width="6" height="6" transform="rotate(90 50 88)" fill="#32445F"/>
<rect x="28" y="88" width="6" height="6" transform="rotate(90 28 88)" fill="#32445F"/>
<rect x="6" y="88" width="6" height="6" transform="rotate(90 6 88)" fill="#32445F"/>
<rect x="138" y="110" width="6" height="6" transform="rotate(90 138 110)" fill="#32445F"/>
<rect x="116" y="110" width="6" height="6" transform="rotate(90 116 110)" fill="#32445F"/>
<rect x="94" y="110" width="6" height="6" transform="rotate(90 94 110)" fill="#32445F"/>
<rect x="72" y="110" width="6" height="6" transform="rotate(90 72 110)" fill="#32445F"/>
<rect x="50" y="110" width="6" height="6" transform="rotate(90 50 110)" fill="#32445F"/>
<rect x="28" y="110" width="6" height="6" transform="rotate(90 28 110)" fill="#32445F"/>
<rect x="6" y="110" width="6" height="6" transform="rotate(90 6 110)" fill="#32445F"/>
<rect x="138" y="132" width="6" height="6" transform="rotate(90 138 132)" fill="#32445F"/>
<rect x="116" y="132" width="6" height="6" transform="rotate(90 116 132)" fill="#32445F"/>
<rect x="94" y="132" width="6" height="6" transform="rotate(90 94 132)" fill="#32445F"/>
<rect x="72" y="132" width="6" height="6" transform="rotate(90 72 132)" fill="#32445F"/>
<rect x="50" y="132" width="6" height="6" transform="rotate(90 50 132)" fill="#32445F"/>
<rect x="28" y="132" width="6" height="6" transform="rotate(90 28 132)" fill="#32445F"/>
<rect x="6" y="132" width="6" height="6" transform="rotate(90 6 132)" fill="#32445F"/>
<rect x="138" y="154" width="6" height="6" transform="rotate(90 138 154)" fill="#32445F"/>
<rect x="116" y="154" width="6" height="6" transform="rotate(90 116 154)" fill="#32445F"/>
<rect x="94" y="154" width="6" height="6" transform="rotate(90 94 154)" fill="#32445F"/>
<rect x="72" y="154" width="6" height="6" transform="rotate(90 72 154)" fill="#32445F"/>
<rect x="50" y="154" width="6" height="6" transform="rotate(90 50 154)" fill="#32445F"/>
<rect x="28" y="154" width="6" height="6" transform="rotate(90 28 154)" fill="#32445F"/>
<rect x="6" y="154" width="6" height="6" transform="rotate(90 6 154)" fill="#32445F"/>
<rect x="138" y="176" width="6" height="6" transform="rotate(90 138 176)" fill="#32445F"/>
<rect x="116" y="176" width="6" height="6" transform="rotate(90 116 176)" fill="#32445F"/>
<rect x="94" y="176" width="6" height="6" transform="rotate(90 94 176)" fill="#32445F"/>
<rect x="72" y="176" width="6" height="6" transform="rotate(90 72 176)" fill="#32445F"/>
<rect x="50" y="176" width="6" height="6" transform="rotate(90 50 176)" fill="#32445F"/>
<rect x="28" y="176" width="6" height="6" transform="rotate(90 28 176)" fill="#32445F"/>
<rect x="6" y="176" width="6" height="6" transform="rotate(90 6 176)" fill="#32445F"/>
<rect x="138" y="198" width="6" height="6" transform="rotate(90 138 198)" fill="#32445F"/>
<rect x="116" y="198" width="6" height="6" transform="rotate(90 116 198)" fill="#32445F"/>
<rect x="94" y="198" width="6" height="6" transform="rotate(90 94 198)" fill="#32445F"/>
<rect x="72" y="198" width="6" height="6" transform="rotate(90 72 198)" fill="#32445F"/>
<rect x="50" y="198" width="6" height="6" transform="rotate(90 50 198)" fill="#32445F"/>
<rect x="28" y="198" width="6" height="6" transform="rotate(90 28 198)" fill="#32445F"/>
<rect x="6" y="198" width="6" height="6" transform="rotate(90 6 198)" fill="#32445F"/>
<rect x="138" y="220" width="6" height="6" transform="rotate(90 138 220)" fill="#32445F"/>
<rect x="116" y="220" width="6" height="6" transform="rotate(90 116 220)" fill="#32445F"/>
<rect x="94" y="220" width="6" height="6" transform="rotate(90 94 220)" fill="#32445F"/>
<rect x="72" y="220" width="6" height="6" transform="rotate(90 72 220)" fill="#32445F"/>
<rect x="50" y="220" width="6" height="6" transform="rotate(90 50 220)" fill="#32445F"/>
<rect x="28" y="220" width="6" height="6" transform="rotate(90 28 220)" fill="#32445F"/>
<rect x="6" y="220" width="6" height="6" transform="rotate(90 6 220)" fill="#32445F"/>
<rect x="138" y="242" width="6" height="6" transform="rotate(90 138 242)" fill="#32445F"/>
<rect x="116" y="242" width="6" height="6" transform="rotate(90 116 242)" fill="#32445F"/>
<rect x="94" y="242" width="6" height="6" transform="rotate(90 94 242)" fill="#32445F"/>
<rect x="72" y="242" width="6" height="6" transform="rotate(90 72 242)" fill="#32445F"/>
<rect x="50" y="242" width="6" height="6" transform="rotate(90 50 242)" fill="#32445F"/>
<rect x="28" y="242" width="6" height="6" transform="rotate(90 28 242)" fill="#32445F"/>
<rect x="6" y="242" width="6" height="6" transform="rotate(90 6 242)" fill="#32445F"/>
<rect x="138" y="264" width="6" height="6" transform="rotate(90 138 264)" fill="#32445F"/>
<rect x="116" y="264" width="6" height="6" transform="rotate(90 116 264)" fill="#32445F"/>
<rect x="94" y="264" width="6" height="6" transform="rotate(90 94 264)" fill="#32445F"/>
<rect x="72" y="264" width="6" height="6" transform="rotate(90 72 264)" fill="#32445F"/>
<rect x="50" y="264" width="6" height="6" transform="rotate(90 50 264)" fill="#32445F"/>
<rect x="28" y="264" width="6" height="6" transform="rotate(90 28 264)" fill="#32445F"/>
<rect x="6" y="264" width="6" height="6" transform="rotate(90 6 264)" fill="#32445F"/>
<rect x="138" y="286" width="6" height="6" transform="rotate(90 138 286)" fill="#32445F"/>
<rect x="116" y="286" width="6" height="6" transform="rotate(90 116 286)" fill="#32445F"/>
<rect x="94" y="286" width="6" height="6" transform="rotate(90 94 286)" fill="#32445F"/>
<rect x="72" y="286" width="6" height="6" transform="rotate(90 72 286)" fill="#32445F"/>
<rect x="50" y="286" width="6" height="6" transform="rotate(90 50 286)" fill="#32445F"/>
<rect x="28" y="286" width="6" height="6" transform="rotate(90 28 286)" fill="#32445F"/>
<rect x="6" y="286" width="6" height="6" transform="rotate(90 6 286)" fill="#32445F"/>
</g>
</svg>
