<svg width="270" height="138" viewBox="0 0 270 138" fill="none" xmlns="http://www.w3.org/2000/svg">
<g opacity="0.1">
<rect width="6" height="6" fill="#32445F"/>
<rect y="22" width="6" height="6" fill="#32445F"/>
<rect y="44" width="6" height="6" fill="#32445F"/>
<rect y="66" width="6" height="6" fill="#32445F"/>
<rect y="88" width="6" height="6" fill="#32445F"/>
<rect y="110" width="6" height="6" fill="#32445F"/>
<rect y="132" width="6" height="6" fill="#32445F"/>
<rect x="22" width="6" height="6" fill="#32445F"/>
<rect x="22" y="22" width="6" height="6" fill="#32445F"/>
<rect x="22" y="44" width="6" height="6" fill="#32445F"/>
<rect x="22" y="66" width="6" height="6" fill="#32445F"/>
<rect x="22" y="88" width="6" height="6" fill="#32445F"/>
<rect x="22" y="110" width="6" height="6" fill="#32445F"/>
<rect x="22" y="132" width="6" height="6" fill="#32445F"/>
<rect x="44" width="6" height="6" fill="#32445F"/>
<rect x="44" y="22" width="6" height="6" fill="#32445F"/>
<rect x="44" y="44" width="6" height="6" fill="#32445F"/>
<rect x="44" y="66" width="6" height="6" fill="#32445F"/>
<rect x="44" y="88" width="6" height="6" fill="#32445F"/>
<rect x="44" y="110" width="6" height="6" fill="#32445F"/>
<rect x="44" y="132" width="6" height="6" fill="#32445F"/>
<rect x="66" width="6" height="6" fill="#32445F"/>
<rect x="66" y="22" width="6" height="6" fill="#32445F"/>
<rect x="66" y="44" width="6" height="6" fill="#32445F"/>
<rect x="66" y="66" width="6" height="6" fill="#32445F"/>
<rect x="66" y="88" width="6" height="6" fill="#32445F"/>
<rect x="66" y="110" width="6" height="6" fill="#32445F"/>
<rect x="66" y="132" width="6" height="6" fill="#32445F"/>
<rect x="88" width="6" height="6" fill="#32445F"/>
<rect x="88" y="22" width="6" height="6" fill="#32445F"/>
<rect x="88" y="44" width="6" height="6" fill="#32445F"/>
<rect x="88" y="66" width="6" height="6" fill="#32445F"/>
<rect x="88" y="88" width="6" height="6" fill="#32445F"/>
<rect x="88" y="110" width="6" height="6" fill="#32445F"/>
<rect x="88" y="132" width="6" height="6" fill="#32445F"/>
<rect x="110" width="6" height="6" fill="#32445F"/>
<rect x="110" y="22" width="6" height="6" fill="#32445F"/>
<rect x="110" y="44" width="6" height="6" fill="#32445F"/>
<rect x="110" y="66" width="6" height="6" fill="#32445F"/>
<rect x="110" y="88" width="6" height="6" fill="#32445F"/>
<rect x="110" y="110" width="6" height="6" fill="#32445F"/>
<rect x="110" y="132" width="6" height="6" fill="#32445F"/>
<rect x="132" width="6" height="6" fill="#32445F"/>
<rect x="132" y="22" width="6" height="6" fill="#32445F"/>
<rect x="132" y="44" width="6" height="6" fill="#32445F"/>
<rect x="132" y="66" width="6" height="6" fill="#32445F"/>
<rect x="132" y="88" width="6" height="6" fill="#32445F"/>
<rect x="132" y="110" width="6" height="6" fill="#32445F"/>
<rect x="132" y="132" width="6" height="6" fill="#32445F"/>
<rect x="154" width="6" height="6" fill="#32445F"/>
<rect x="154" y="22" width="6" height="6" fill="#32445F"/>
<rect x="154" y="44" width="6" height="6" fill="#32445F"/>
<rect x="154" y="66" width="6" height="6" fill="#32445F"/>
<rect x="154" y="88" width="6" height="6" fill="#32445F"/>
<rect x="154" y="110" width="6" height="6" fill="#32445F"/>
<rect x="154" y="132" width="6" height="6" fill="#32445F"/>
<rect x="176" width="6" height="6" fill="#32445F"/>
<rect x="176" y="22" width="6" height="6" fill="#32445F"/>
<rect x="176" y="44" width="6" height="6" fill="#32445F"/>
<rect x="176" y="66" width="6" height="6" fill="#32445F"/>
<rect x="176" y="88" width="6" height="6" fill="#32445F"/>
<rect x="176" y="110" width="6" height="6" fill="#32445F"/>
<rect x="176" y="132" width="6" height="6" fill="#32445F"/>
<rect x="198" width="6" height="6" fill="#32445F"/>
<rect x="198" y="22" width="6" height="6" fill="#32445F"/>
<rect x="198" y="44" width="6" height="6" fill="#32445F"/>
<rect x="198" y="66" width="6" height="6" fill="#32445F"/>
<rect x="198" y="88" width="6" height="6" fill="#32445F"/>
<rect x="198" y="110" width="6" height="6" fill="#32445F"/>
<rect x="198" y="132" width="6" height="6" fill="#32445F"/>
<rect x="220" width="6" height="6" fill="#32445F"/>
<rect x="220" y="22" width="6" height="6" fill="#32445F"/>
<rect x="220" y="44" width="6" height="6" fill="#32445F"/>
<rect x="220" y="66" width="6" height="6" fill="#32445F"/>
<rect x="220" y="88" width="6" height="6" fill="#32445F"/>
<rect x="220" y="110" width="6" height="6" fill="#32445F"/>
<rect x="220" y="132" width="6" height="6" fill="#32445F"/>
<rect x="242" width="6" height="6" fill="#32445F"/>
<rect x="242" y="22" width="6" height="6" fill="#32445F"/>
<rect x="242" y="44" width="6" height="6" fill="#32445F"/>
<rect x="242" y="66" width="6" height="6" fill="#32445F"/>
<rect x="242" y="88" width="6" height="6" fill="#32445F"/>
<rect x="242" y="110" width="6" height="6" fill="#32445F"/>
<rect x="242" y="132" width="6" height="6" fill="#32445F"/>
<rect x="264" width="6" height="6" fill="#32445F"/>
<rect x="264" y="22" width="6" height="6" fill="#32445F"/>
<rect x="264" y="44" width="6" height="6" fill="#32445F"/>
<rect x="264" y="66" width="6" height="6" fill="#32445F"/>
<rect x="264" y="88" width="6" height="6" fill="#32445F"/>
<rect x="264" y="110" width="6" height="6" fill="#32445F"/>
<rect x="264" y="132" width="6" height="6" fill="#32445F"/>
</g>
</svg>
