<svg width="317" height="51" viewBox="0 0 317 51" fill="none" xmlns="http://www.w3.org/2000/svg">
<path fill-rule="evenodd" clip-rule="evenodd" d="M36.2139 1.40696C33.5532 0.473631 30.7393 0 27.9254 0C24.401 0 20.9741 0.96119 17.9513 2.77213C11.4597 6.65868 7.6707 13.8189 7.55926 21.3273C7.55926 21.4387 7.55926 21.5641 7.55926 21.6755V21.6895C7.55926 21.8009 7.55926 21.9263 7.55926 22.0377V22.1074C7.55926 22.2049 7.55925 22.3163 7.57318 22.4138V22.5671V22.6924C7.71249 26.1472 8.63189 29.5322 10.2896 32.569L10.401 32.7641C10.9304 33.7252 11.5294 34.6307 12.198 35.4944C12.407 35.773 12.3791 36.177 12.1284 36.4138C11.8637 36.6506 11.4737 36.6645 11.209 36.4138C10.2757 35.578 9.41199 34.6586 8.64582 33.6695L8.5901 33.5999C8.52045 33.5163 8.46473 33.4327 8.39507 33.3491L8.25577 33.168L8.20005 33.0984C5.94334 30.0198 4.56424 26.4118 4.32743 22.5949V22.5114C4.3135 22.3999 4.3135 22.2745 4.3135 22.1631V22.1213C4.3135 22.0099 4.29956 21.8984 4.29956 21.787V21.6895C4.29956 21.5641 4.29956 21.4527 4.29956 21.3273C4.29956 19.8507 4.46673 18.3741 4.80106 16.9253C4.82892 16.786 4.74534 16.6467 4.60603 16.6049C4.46673 16.5631 4.3135 16.6467 4.2717 16.7721C3.33837 19.4328 2.86475 22.2467 2.86475 25.0745C2.86475 28.5989 3.82594 32.0257 5.63687 35.0486C9.52343 41.5401 16.6836 45.3292 24.192 45.4406C24.3035 45.4406 24.4288 45.4406 24.5403 45.4406H24.5542C24.6657 45.4406 24.791 45.4406 24.9025 45.4406H24.9721C25.0696 45.4406 25.1811 45.4406 25.2786 45.4267H25.4318H25.5572C29.0119 45.2874 32.397 44.368 35.4338 42.7103L35.6288 42.5988C36.59 42.0695 37.4955 41.4705 38.3591 40.8018C38.6377 40.5929 39.0417 40.6207 39.2785 40.8715C39.5154 41.1362 39.5293 41.5262 39.2785 41.7909C38.4427 42.7242 37.5233 43.5879 36.5343 44.3541L36.4646 44.4098C36.381 44.4794 36.2975 44.5352 36.2139 44.6048L36.0328 44.7441L35.9631 44.7998C32.8845 47.0565 29.2766 48.4356 25.4597 48.6725H25.3761C25.2647 48.6864 25.1393 48.6864 25.0278 48.6864H24.9861C24.8746 48.6864 24.7632 48.7003 24.6517 48.7003H24.5542C24.4288 48.7003 24.3174 48.7003 24.192 48.7003C22.7154 48.7003 21.2388 48.5331 19.7901 48.1988C19.6508 48.171 19.5114 48.2545 19.4697 48.3938C19.4279 48.5332 19.5114 48.6864 19.6368 48.7282C22.2975 49.6615 25.1114 50.1351 27.9393 50.1351C31.4636 50.1351 34.8905 49.1739 37.9134 47.363C44.4049 43.4765 48.1939 36.3163 48.3054 28.8078C48.3054 28.6964 48.3054 28.571 48.3054 28.4596V28.4457C48.3054 28.3342 48.3054 28.2088 48.3054 28.0974V28.0278C48.3054 27.9302 48.3054 27.8188 48.2914 27.7213V27.5681V27.4427C48.1521 23.988 47.2327 20.6029 45.575 17.5661L45.4636 17.3711C44.9342 16.4099 44.3352 15.5044 43.6666 14.6407C43.4576 14.3621 43.4855 13.9582 43.7362 13.7213C44.0009 13.4845 44.391 13.4706 44.6556 13.7213C45.589 14.5572 46.4526 15.4766 47.2188 16.4656L47.2745 16.5353C47.3442 16.6188 47.3999 16.7024 47.4696 16.786L47.6089 16.9671L47.6646 17.0367C49.9213 20.1153 51.3004 23.7233 51.5372 27.5402V27.6238C51.5511 27.7352 51.5511 27.8606 51.5511 27.972V28.0138C51.5511 28.1253 51.5651 28.2367 51.5651 28.3482V28.4457C51.5651 28.571 51.5651 28.6825 51.5651 28.8078C51.5651 30.2845 51.3979 31.7611 51.0636 33.2098C51.0357 33.3491 51.1193 33.4884 51.2586 33.5302C51.3979 33.572 51.5511 33.4884 51.5929 33.3631C52.5263 30.7024 52.9999 27.8885 52.9999 25.0606C52.9999 21.5362 52.0387 18.1094 50.2278 15.0865C46.3412 8.59499 39.181 4.80595 31.6726 4.69451C31.5612 4.69451 31.4358 4.69451 31.3243 4.69451H31.3104C31.199 4.69451 31.0736 4.69451 30.9622 4.69451H30.8925C30.795 4.69451 30.6835 4.69451 30.586 4.70844H30.4328H30.3074C26.8527 4.84774 23.4677 5.76714 20.4309 7.42485L20.2358 7.53629C19.2746 8.06564 18.3692 8.66464 17.5055 9.3333C17.2269 9.54225 16.8229 9.51439 16.5861 9.26365C16.3493 8.99897 16.3353 8.60892 16.5861 8.34425C17.4219 7.41092 18.3413 6.54724 19.3304 5.78107L19.4 5.72535C19.4836 5.6557 19.5672 5.59998 19.6508 5.53033L19.8318 5.39102L19.9015 5.3353C22.9801 3.0786 26.588 1.6995 30.4049 1.46268H30.4885C30.6 1.44875 30.7253 1.44875 30.8368 1.44875H30.8786C30.99 1.44875 31.1015 1.43482 31.2129 1.43482H31.3104C31.4358 1.43482 31.5472 1.43482 31.6726 1.43482C31.8537 1.43482 32.0348 1.43482 32.2159 1.44875H32.2437C32.4109 1.44875 32.592 1.46268 32.7592 1.47661H32.801C32.9681 1.49054 33.1353 1.50447 33.3024 1.5184H33.3442C33.5114 1.53233 33.6786 1.54626 33.8457 1.57412H33.8875C34.0547 1.58805 34.2218 1.61591 34.3751 1.62984L34.4308 1.64378C34.584 1.67164 34.7373 1.68557 34.8905 1.71343L34.9601 1.72736C35.1134 1.75522 35.2527 1.78308 35.4059 1.81094L35.4895 1.82487C35.6288 1.85273 35.782 1.88059 35.9213 1.92238L36.0189 1.95024C36.0328 1.95024 36.0467 1.95024 36.0606 1.96417C36.1999 1.99203 36.3392 1.90845 36.381 1.76915C36.4368 1.60198 36.3532 1.44875 36.2139 1.40696ZM27.5214 14.3482C27.6607 14.3482 27.786 14.3343 27.9254 14.3343C35.1412 14.3343 41.591 19.8228 41.591 27.2477C41.591 27.5959 41.577 27.9442 41.5492 28.2785C41.4656 29.2397 41.2706 30.187 40.978 31.0924L40.9641 31.1481L40.9084 31.3014L40.8387 31.5103L40.783 31.6636L40.7552 31.7332C40.6437 31.984 40.379 32.1233 40.1144 32.0536C39.8497 31.984 39.6825 31.7471 39.6964 31.4825L39.7104 31.3014L39.7382 30.9949L39.7661 30.7302L39.794 30.368L39.8079 29.9362V29.6437V29.3511C39.8079 29.2258 39.8079 29.1004 39.8079 28.975V28.9472C39.8079 28.8357 39.8079 28.7103 39.794 28.5989V28.571C39.794 28.4735 39.78 28.376 39.78 28.2924C39.7104 27.0526 39.5154 25.8128 39.195 24.6009C39.1532 24.4616 39.0278 24.378 38.8885 24.4059C38.7492 24.4198 38.6517 24.5452 38.6517 24.6845C38.6517 24.8238 38.6656 24.9492 38.6656 25.0885C38.6656 32.3044 33.1771 38.7541 25.7522 38.7541C25.404 38.7541 25.0557 38.7402 24.7214 38.7123C23.7602 38.6287 22.8129 38.4337 21.9075 38.1411L21.8517 38.1272L21.6985 38.0715L21.4895 38.0018L21.3363 37.9461L21.2667 37.9183C21.0159 37.8068 20.8766 37.5421 20.9463 37.2775C21.0159 37.0128 21.2527 36.8456 21.5174 36.8596L21.6985 36.8735L22.005 36.9014L22.2696 36.9292L22.6318 36.9571L23.0637 36.971H23.3562H23.6487C23.7741 36.971 23.8995 36.971 24.0249 36.971H24.0527C24.1642 36.971 24.2895 36.971 24.401 36.9571H24.4288C24.5264 36.9571 24.6239 36.9431 24.7075 36.9431C25.9472 36.8735 27.187 36.6785 28.399 36.3581C28.5383 36.3163 28.6219 36.1909 28.594 36.0516C28.5801 35.9123 28.4547 35.8148 28.3154 35.8148C28.1761 35.8148 28.0507 35.8287 27.9114 35.8287C20.6955 35.8287 14.2458 30.3402 14.2458 22.9153C14.2458 22.5671 14.2597 22.2188 14.2876 21.8845C14.3712 20.9233 14.5662 19.976 14.8587 19.0706L14.8727 19.0149L14.9284 18.8616L14.998 18.6527L15.0538 18.4994L15.0816 18.4298C15.1931 18.179 15.4577 18.0397 15.7224 18.1094C15.9871 18.179 16.1542 18.4159 16.1403 18.6805L16.1264 18.8616L16.0985 19.1681L16.0707 19.4328L16.0428 19.795L16.0289 20.2268V20.5193V20.8119C16.0289 20.9372 16.0289 21.0626 16.0289 21.188V21.2158C16.0289 21.3273 16.0289 21.4527 16.0428 21.5641V21.592C16.0428 21.6895 16.0567 21.787 16.0567 21.8706C16.1264 23.1104 16.3214 24.3502 16.6418 25.5621C16.6836 25.7014 16.809 25.785 16.9483 25.7571C17.0876 25.7432 17.1851 25.6178 17.1851 25.4785C17.1851 25.3392 17.1712 25.2138 17.1712 25.0745C17.1712 17.8586 22.6597 11.4089 30.0845 11.4089C30.4328 11.4089 30.7811 11.4228 31.1154 11.4507C32.0766 11.5343 33.0238 11.7293 33.9293 12.0218L33.985 12.0358L34.1383 12.0915L34.3472 12.1611L34.5005 12.2169L34.5701 12.2447C34.8208 12.3562 34.9601 12.6208 34.8905 12.8855C34.8208 13.1502 34.584 13.3174 34.3194 13.3034L34.1383 13.2895L33.8318 13.2616L33.5671 13.2338L33.2049 13.2059L32.7731 13.192H32.4806H32.188C32.0626 13.192 31.9373 13.192 31.8119 13.192H31.784C31.6726 13.192 31.5472 13.192 31.4358 13.2059H31.4079C31.3104 13.2059 31.2129 13.2198 31.1293 13.2198C29.8895 13.2895 28.6497 13.4845 27.4378 13.8049C27.2985 13.8467 27.2149 13.9721 27.2428 14.1114C27.2706 14.2507 27.3821 14.3482 27.5214 14.3482Z" fill="#EB3437"/>
<path fill-rule="evenodd" clip-rule="evenodd" d="M36.2139 1.40696C33.5532 0.473631 30.7393 0 27.9254 0C24.401 0 20.9741 0.96119 17.9513 2.77213C11.4597 6.65868 7.6707 13.8189 7.55926 21.3273C7.55926 21.4387 7.55926 21.5641 7.55926 21.6755V21.6895C7.55926 21.8009 7.55926 21.9263 7.55926 22.0377V22.1074C7.55926 22.2049 7.55925 22.3163 7.57318 22.4138V22.5671V22.6924C7.71249 26.1472 8.63189 29.5322 10.2896 32.569L10.401 32.7641C10.9304 33.7252 11.5294 34.6307 12.198 35.4944C12.407 35.773 12.3791 36.177 12.1284 36.4138C11.8637 36.6506 11.4737 36.6645 11.209 36.4138C10.2757 35.578 9.41199 34.6586 8.64582 33.6695L8.5901 33.5999C8.52045 33.5163 8.46473 33.4327 8.39507 33.3491L8.25577 33.168L8.20005 33.0984C5.94334 30.0198 4.56424 26.4118 4.32743 22.5949V22.5114C4.3135 22.3999 4.3135 22.2745 4.3135 22.1631V22.1213C4.3135 22.0099 4.29956 21.8984 4.29956 21.787V21.6895C4.29956 21.5641 4.29956 21.4527 4.29956 21.3273C4.29956 19.8507 4.46673 18.3741 4.80106 16.9253C4.82892 16.786 4.74534 16.6467 4.60603 16.6049C4.46673 16.5631 4.3135 16.6467 4.2717 16.7721C3.33837 19.4328 2.86475 22.2467 2.86475 25.0745C2.86475 28.5989 3.82594 32.0257 5.63687 35.0486C9.52343 41.5401 16.6836 45.3292 24.192 45.4406C24.3035 45.4406 24.4288 45.4406 24.5403 45.4406H24.5542C24.6657 45.4406 24.791 45.4406 24.9025 45.4406H24.9721C25.0696 45.4406 25.1811 45.4406 25.2786 45.4267H25.4318H25.5572C29.0119 45.2874 32.397 44.368 35.4338 42.7103L35.6288 42.5988C36.59 42.0695 37.4955 41.4705 38.3591 40.8018C38.6377 40.5929 39.0417 40.6207 39.2785 40.8715C39.5154 41.1362 39.5293 41.5262 39.2785 41.7909C38.4427 42.7242 37.5233 43.5879 36.5343 44.3541L36.4646 44.4098C36.381 44.4794 36.2975 44.5352 36.2139 44.6048L36.0328 44.7441L35.9631 44.7998C32.8845 47.0565 29.2766 48.4356 25.4597 48.6725H25.3761C25.2647 48.6864 25.1393 48.6864 25.0278 48.6864H24.9861C24.8746 48.6864 24.7632 48.7003 24.6517 48.7003H24.5542C24.4288 48.7003 24.3174 48.7003 24.192 48.7003C22.7154 48.7003 21.2388 48.5331 19.7901 48.1988C19.6508 48.171 19.5114 48.2545 19.4697 48.3938C19.4279 48.5332 19.5114 48.6864 19.6368 48.7282C22.2975 49.6615 25.1114 50.1351 27.9393 50.1351C31.4636 50.1351 34.8905 49.1739 37.9134 47.363C44.4049 43.4765 48.1939 36.3163 48.3054 28.8078C48.3054 28.6964 48.3054 28.571 48.3054 28.4596V28.4457C48.3054 28.3342 48.3054 28.2088 48.3054 28.0974V28.0278C48.3054 27.9302 48.3054 27.8188 48.2914 27.7213V27.5681V27.4427C48.1521 23.988 47.2327 20.6029 45.575 17.5661L45.4636 17.3711C44.9342 16.4099 44.3352 15.5044 43.6666 14.6407C43.4576 14.3621 43.4855 13.9582 43.7362 13.7213C44.0009 13.4845 44.391 13.4706 44.6556 13.7213C45.589 14.5572 46.4526 15.4766 47.2188 16.4656L47.2745 16.5353C47.3442 16.6188 47.3999 16.7024 47.4696 16.786L47.6089 16.9671L47.6646 17.0367C49.9213 20.1153 51.3004 23.7233 51.5372 27.5402V27.6238C51.5511 27.7352 51.5511 27.8606 51.5511 27.972V28.0138C51.5511 28.1253 51.5651 28.2367 51.5651 28.3482V28.4457C51.5651 28.571 51.5651 28.6825 51.5651 28.8078C51.5651 30.2845 51.3979 31.7611 51.0636 33.2098C51.0357 33.3491 51.1193 33.4884 51.2586 33.5302C51.3979 33.572 51.5511 33.4884 51.5929 33.3631C52.5263 30.7024 52.9999 27.8885 52.9999 25.0606C52.9999 21.5362 52.0387 18.1094 50.2278 15.0865C46.3412 8.59499 39.181 4.80595 31.6726 4.69451C31.5612 4.69451 31.4358 4.69451 31.3243 4.69451H31.3104C31.199 4.69451 31.0736 4.69451 30.9622 4.69451H30.8925C30.795 4.69451 30.6835 4.69451 30.586 4.70844H30.4328H30.3074C26.8527 4.84774 23.4677 5.76714 20.4309 7.42485L20.2358 7.53629C19.2746 8.06564 18.3692 8.66464 17.5055 9.3333C17.2269 9.54225 16.8229 9.51439 16.5861 9.26365C16.3493 8.99897 16.3353 8.60892 16.5861 8.34425C17.4219 7.41092 18.3413 6.54724 19.3304 5.78107L19.4 5.72535C19.4836 5.6557 19.5672 5.59998 19.6508 5.53033L19.8318 5.39102L19.9015 5.3353C22.9801 3.0786 26.588 1.6995 30.4049 1.46268H30.4885C30.6 1.44875 30.7253 1.44875 30.8368 1.44875H30.8786C30.99 1.44875 31.1015 1.43482 31.2129 1.43482H31.3104C31.4358 1.43482 31.5472 1.43482 31.6726 1.43482C31.8537 1.43482 32.0348 1.43482 32.2159 1.44875H32.2437C32.4109 1.44875 32.592 1.46268 32.7592 1.47661H32.801C32.9681 1.49054 33.1353 1.50447 33.3024 1.5184H33.3442C33.5114 1.53233 33.6786 1.54626 33.8457 1.57412H33.8875C34.0547 1.58805 34.2218 1.61591 34.3751 1.62984L34.4308 1.64378C34.584 1.67164 34.7373 1.68557 34.8905 1.71343L34.9601 1.72736C35.1134 1.75522 35.2527 1.78308 35.4059 1.81094L35.4895 1.82487C35.6288 1.85273 35.782 1.88059 35.9213 1.92238L36.0189 1.95024C36.0328 1.95024 36.0467 1.95024 36.0606 1.96417C36.1999 1.99203 36.3392 1.90845 36.381 1.76915C36.4368 1.60198 36.3532 1.44875 36.2139 1.40696ZM27.5214 14.3482C27.6607 14.3482 27.786 14.3343 27.9254 14.3343C35.1412 14.3343 41.591 19.8228 41.591 27.2477C41.591 27.5959 41.577 27.9442 41.5492 28.2785C41.4656 29.2397 41.2706 30.187 40.978 31.0924L40.9641 31.1481L40.9084 31.3014L40.8387 31.5103L40.783 31.6636L40.7552 31.7332C40.6437 31.984 40.379 32.1233 40.1144 32.0536C39.8497 31.984 39.6825 31.7471 39.6964 31.4825L39.7104 31.3014L39.7382 30.9949L39.7661 30.7302L39.794 30.368L39.8079 29.9362V29.6437V29.3511C39.8079 29.2258 39.8079 29.1004 39.8079 28.975V28.9472C39.8079 28.8357 39.8079 28.7103 39.794 28.5989V28.571C39.794 28.4735 39.78 28.376 39.78 28.2924C39.7104 27.0526 39.5154 25.8128 39.195 24.6009C39.1532 24.4616 39.0278 24.378 38.8885 24.4059C38.7492 24.4198 38.6517 24.5452 38.6517 24.6845C38.6517 24.8238 38.6656 24.9492 38.6656 25.0885C38.6656 32.3044 33.1771 38.7541 25.7522 38.7541C25.404 38.7541 25.0557 38.7402 24.7214 38.7123C23.7602 38.6287 22.8129 38.4337 21.9075 38.1411L21.8517 38.1272L21.6985 38.0715L21.4895 38.0018L21.3363 37.9461L21.2667 37.9183C21.0159 37.8068 20.8766 37.5421 20.9463 37.2775C21.0159 37.0128 21.2527 36.8456 21.5174 36.8596L21.6985 36.8735L22.005 36.9014L22.2696 36.9292L22.6318 36.9571L23.0637 36.971H23.3562H23.6487C23.7741 36.971 23.8995 36.971 24.0249 36.971H24.0527C24.1642 36.971 24.2895 36.971 24.401 36.9571H24.4288C24.5264 36.9571 24.6239 36.9431 24.7075 36.9431C25.9472 36.8735 27.187 36.6785 28.399 36.3581C28.5383 36.3163 28.6219 36.1909 28.594 36.0516C28.5801 35.9123 28.4547 35.8148 28.3154 35.8148C28.1761 35.8148 28.0507 35.8287 27.9114 35.8287C20.6955 35.8287 14.2458 30.3402 14.2458 22.9153C14.2458 22.5671 14.2597 22.2188 14.2876 21.8845C14.3712 20.9233 14.5662 19.976 14.8587 19.0706L14.8727 19.0149L14.9284 18.8616L14.998 18.6527L15.0538 18.4994L15.0816 18.4298C15.1931 18.179 15.4577 18.0397 15.7224 18.1094C15.9871 18.179 16.1542 18.4159 16.1403 18.6805L16.1264 18.8616L16.0985 19.1681L16.0707 19.4328L16.0428 19.795L16.0289 20.2268V20.5193V20.8119C16.0289 20.9372 16.0289 21.0626 16.0289 21.188V21.2158C16.0289 21.3273 16.0289 21.4527 16.0428 21.5641V21.592C16.0428 21.6895 16.0567 21.787 16.0567 21.8706C16.1264 23.1104 16.3214 24.3502 16.6418 25.5621C16.6836 25.7014 16.809 25.785 16.9483 25.7571C17.0876 25.7432 17.1851 25.6178 17.1851 25.4785C17.1851 25.3392 17.1712 25.2138 17.1712 25.0745C17.1712 17.8586 22.6597 11.4089 30.0845 11.4089C30.4328 11.4089 30.7811 11.4228 31.1154 11.4507C32.0766 11.5343 33.0238 11.7293 33.9293 12.0218L33.985 12.0358L34.1383 12.0915L34.3472 12.1611L34.5005 12.2169L34.5701 12.2447C34.8208 12.3562 34.9601 12.6208 34.8905 12.8855C34.8208 13.1502 34.584 13.3174 34.3194 13.3034L34.1383 13.2895L33.8318 13.2616L33.5671 13.2338L33.2049 13.2059L32.7731 13.192H32.4806H32.188C32.0626 13.192 31.9373 13.192 31.8119 13.192H31.784C31.6726 13.192 31.5472 13.192 31.4358 13.2059H31.4079C31.3104 13.2059 31.2129 13.2198 31.1293 13.2198C29.8895 13.2895 28.6497 13.4845 27.4378 13.8049C27.2985 13.8467 27.2149 13.9721 27.2428 14.1114C27.2706 14.2507 27.3821 14.3482 27.5214 14.3482Z" fill="url(#paint0_linear_3_5121)"/>
<path fill-rule="evenodd" clip-rule="evenodd" d="M36.2139 1.40696C33.5532 0.473631 30.7393 0 27.9254 0C24.401 0 20.9741 0.96119 17.9513 2.77213C11.4597 6.65868 7.6707 13.8189 7.55926 21.3273C7.55926 21.4387 7.55926 21.5641 7.55926 21.6755V21.6895C7.55926 21.8009 7.55926 21.9263 7.55926 22.0377V22.1074C7.55926 22.2049 7.55925 22.3163 7.57318 22.4138V22.5671V22.6924C7.71249 26.1472 8.63189 29.5322 10.2896 32.569L10.401 32.7641C10.9304 33.7252 11.5294 34.6307 12.198 35.4944C12.407 35.773 12.3791 36.177 12.1284 36.4138C11.8637 36.6506 11.4737 36.6645 11.209 36.4138C10.2757 35.578 9.41199 34.6586 8.64582 33.6695L8.5901 33.5999C8.52045 33.5163 8.46473 33.4327 8.39507 33.3491L8.25577 33.168L8.20005 33.0984C5.94334 30.0198 4.56424 26.4118 4.32743 22.5949V22.5114C4.3135 22.3999 4.3135 22.2745 4.3135 22.1631V22.1213C4.3135 22.0099 4.29956 21.8984 4.29956 21.787V21.6895C4.29956 21.5641 4.29956 21.4527 4.29956 21.3273C4.29956 19.8507 4.46673 18.3741 4.80106 16.9253C4.82892 16.786 4.74534 16.6467 4.60603 16.6049C4.46673 16.5631 4.3135 16.6467 4.2717 16.7721C3.33837 19.4328 2.86475 22.2467 2.86475 25.0745C2.86475 28.5989 3.82594 32.0257 5.63687 35.0486C9.52343 41.5401 16.6836 45.3292 24.192 45.4406C24.3035 45.4406 24.4288 45.4406 24.5403 45.4406H24.5542C24.6657 45.4406 24.791 45.4406 24.9025 45.4406H24.9721C25.0696 45.4406 25.1811 45.4406 25.2786 45.4267H25.4318H25.5572C29.0119 45.2874 32.397 44.368 35.4338 42.7103L35.6288 42.5988C36.59 42.0695 37.4955 41.4705 38.3591 40.8018C38.6377 40.5929 39.0417 40.6207 39.2785 40.8715C39.5154 41.1362 39.5293 41.5262 39.2785 41.7909C38.4427 42.7242 37.5233 43.5879 36.5343 44.3541L36.4646 44.4098C36.381 44.4794 36.2975 44.5352 36.2139 44.6048L36.0328 44.7441L35.9631 44.7998C32.8845 47.0565 29.2766 48.4356 25.4597 48.6725H25.3761C25.2647 48.6864 25.1393 48.6864 25.0278 48.6864H24.9861C24.8746 48.6864 24.7632 48.7003 24.6517 48.7003H24.5542C24.4288 48.7003 24.3174 48.7003 24.192 48.7003C22.7154 48.7003 21.2388 48.5331 19.7901 48.1988C19.6508 48.171 19.5114 48.2545 19.4697 48.3938C19.4279 48.5332 19.5114 48.6864 19.6368 48.7282C22.2975 49.6615 25.1114 50.1351 27.9393 50.1351C31.4636 50.1351 34.8905 49.1739 37.9134 47.363C44.4049 43.4765 48.1939 36.3163 48.3054 28.8078C48.3054 28.6964 48.3054 28.571 48.3054 28.4596V28.4457C48.3054 28.3342 48.3054 28.2088 48.3054 28.0974V28.0278C48.3054 27.9302 48.3054 27.8188 48.2914 27.7213V27.5681V27.4427C48.1521 23.988 47.2327 20.6029 45.575 17.5661L45.4636 17.3711C44.9342 16.4099 44.3352 15.5044 43.6666 14.6407C43.4576 14.3621 43.4855 13.9582 43.7362 13.7213C44.0009 13.4845 44.391 13.4706 44.6556 13.7213C45.589 14.5572 46.4526 15.4766 47.2188 16.4656L47.2745 16.5353C47.3442 16.6188 47.3999 16.7024 47.4696 16.786L47.6089 16.9671L47.6646 17.0367C49.9213 20.1153 51.3004 23.7233 51.5372 27.5402V27.6238C51.5511 27.7352 51.5511 27.8606 51.5511 27.972V28.0138C51.5511 28.1253 51.5651 28.2367 51.5651 28.3482V28.4457C51.5651 28.571 51.5651 28.6825 51.5651 28.8078C51.5651 30.2845 51.3979 31.7611 51.0636 33.2098C51.0357 33.3491 51.1193 33.4884 51.2586 33.5302C51.3979 33.572 51.5511 33.4884 51.5929 33.3631C52.5263 30.7024 52.9999 27.8885 52.9999 25.0606C52.9999 21.5362 52.0387 18.1094 50.2278 15.0865C46.3412 8.59499 39.181 4.80595 31.6726 4.69451C31.5612 4.69451 31.4358 4.69451 31.3243 4.69451H31.3104C31.199 4.69451 31.0736 4.69451 30.9622 4.69451H30.8925C30.795 4.69451 30.6835 4.69451 30.586 4.70844H30.4328H30.3074C26.8527 4.84774 23.4677 5.76714 20.4309 7.42485L20.2358 7.53629C19.2746 8.06564 18.3692 8.66464 17.5055 9.3333C17.2269 9.54225 16.8229 9.51439 16.5861 9.26365C16.3493 8.99897 16.3353 8.60892 16.5861 8.34425C17.4219 7.41092 18.3413 6.54724 19.3304 5.78107L19.4 5.72535C19.4836 5.6557 19.5672 5.59998 19.6508 5.53033L19.8318 5.39102L19.9015 5.3353C22.9801 3.0786 26.588 1.6995 30.4049 1.46268H30.4885C30.6 1.44875 30.7253 1.44875 30.8368 1.44875H30.8786C30.99 1.44875 31.1015 1.43482 31.2129 1.43482H31.3104C31.4358 1.43482 31.5472 1.43482 31.6726 1.43482C31.8537 1.43482 32.0348 1.43482 32.2159 1.44875H32.2437C32.4109 1.44875 32.592 1.46268 32.7592 1.47661H32.801C32.9681 1.49054 33.1353 1.50447 33.3024 1.5184H33.3442C33.5114 1.53233 33.6786 1.54626 33.8457 1.57412H33.8875C34.0547 1.58805 34.2218 1.61591 34.3751 1.62984L34.4308 1.64378C34.584 1.67164 34.7373 1.68557 34.8905 1.71343L34.9601 1.72736C35.1134 1.75522 35.2527 1.78308 35.4059 1.81094L35.4895 1.82487C35.6288 1.85273 35.782 1.88059 35.9213 1.92238L36.0189 1.95024C36.0328 1.95024 36.0467 1.95024 36.0606 1.96417C36.1999 1.99203 36.3392 1.90845 36.381 1.76915C36.4368 1.60198 36.3532 1.44875 36.2139 1.40696ZM27.5214 14.3482C27.6607 14.3482 27.786 14.3343 27.9254 14.3343C35.1412 14.3343 41.591 19.8228 41.591 27.2477C41.591 27.5959 41.577 27.9442 41.5492 28.2785C41.4656 29.2397 41.2706 30.187 40.978 31.0924L40.9641 31.1481L40.9084 31.3014L40.8387 31.5103L40.783 31.6636L40.7552 31.7332C40.6437 31.984 40.379 32.1233 40.1144 32.0536C39.8497 31.984 39.6825 31.7471 39.6964 31.4825L39.7104 31.3014L39.7382 30.9949L39.7661 30.7302L39.794 30.368L39.8079 29.9362V29.6437V29.3511C39.8079 29.2258 39.8079 29.1004 39.8079 28.975V28.9472C39.8079 28.8357 39.8079 28.7103 39.794 28.5989V28.571C39.794 28.4735 39.78 28.376 39.78 28.2924C39.7104 27.0526 39.5154 25.8128 39.195 24.6009C39.1532 24.4616 39.0278 24.378 38.8885 24.4059C38.7492 24.4198 38.6517 24.5452 38.6517 24.6845C38.6517 24.8238 38.6656 24.9492 38.6656 25.0885C38.6656 32.3044 33.1771 38.7541 25.7522 38.7541C25.404 38.7541 25.0557 38.7402 24.7214 38.7123C23.7602 38.6287 22.8129 38.4337 21.9075 38.1411L21.8517 38.1272L21.6985 38.0715L21.4895 38.0018L21.3363 37.9461L21.2667 37.9183C21.0159 37.8068 20.8766 37.5421 20.9463 37.2775C21.0159 37.0128 21.2527 36.8456 21.5174 36.8596L21.6985 36.8735L22.005 36.9014L22.2696 36.9292L22.6318 36.9571L23.0637 36.971H23.3562H23.6487C23.7741 36.971 23.8995 36.971 24.0249 36.971H24.0527C24.1642 36.971 24.2895 36.971 24.401 36.9571H24.4288C24.5264 36.9571 24.6239 36.9431 24.7075 36.9431C25.9472 36.8735 27.187 36.6785 28.399 36.3581C28.5383 36.3163 28.6219 36.1909 28.594 36.0516C28.5801 35.9123 28.4547 35.8148 28.3154 35.8148C28.1761 35.8148 28.0507 35.8287 27.9114 35.8287C20.6955 35.8287 14.2458 30.3402 14.2458 22.9153C14.2458 22.5671 14.2597 22.2188 14.2876 21.8845C14.3712 20.9233 14.5662 19.976 14.8587 19.0706L14.8727 19.0149L14.9284 18.8616L14.998 18.6527L15.0538 18.4994L15.0816 18.4298C15.1931 18.179 15.4577 18.0397 15.7224 18.1094C15.9871 18.179 16.1542 18.4159 16.1403 18.6805L16.1264 18.8616L16.0985 19.1681L16.0707 19.4328L16.0428 19.795L16.0289 20.2268V20.5193V20.8119C16.0289 20.9372 16.0289 21.0626 16.0289 21.188V21.2158C16.0289 21.3273 16.0289 21.4527 16.0428 21.5641V21.592C16.0428 21.6895 16.0567 21.787 16.0567 21.8706C16.1264 23.1104 16.3214 24.3502 16.6418 25.5621C16.6836 25.7014 16.809 25.785 16.9483 25.7571C17.0876 25.7432 17.1851 25.6178 17.1851 25.4785C17.1851 25.3392 17.1712 25.2138 17.1712 25.0745C17.1712 17.8586 22.6597 11.4089 30.0845 11.4089C30.4328 11.4089 30.7811 11.4228 31.1154 11.4507C32.0766 11.5343 33.0238 11.7293 33.9293 12.0218L33.985 12.0358L34.1383 12.0915L34.3472 12.1611L34.5005 12.2169L34.5701 12.2447C34.8208 12.3562 34.9601 12.6208 34.8905 12.8855C34.8208 13.1502 34.584 13.3174 34.3194 13.3034L34.1383 13.2895L33.8318 13.2616L33.5671 13.2338L33.2049 13.2059L32.7731 13.192H32.4806H32.188C32.0626 13.192 31.9373 13.192 31.8119 13.192H31.784C31.6726 13.192 31.5472 13.192 31.4358 13.2059H31.4079C31.3104 13.2059 31.2129 13.2198 31.1293 13.2198C29.8895 13.2895 28.6497 13.4845 27.4378 13.8049C27.2985 13.8467 27.2149 13.9721 27.2428 14.1114C27.2706 14.2507 27.3821 14.3482 27.5214 14.3482Z" fill="#7964FF"/>
<path d="M47.2701 50.1352C47.7613 48.808 48.8077 47.7615 50.135 47.2704C48.8077 46.7792 47.7613 45.7328 47.2701 44.4055C46.779 45.7328 45.7325 46.7792 44.4053 47.2704C45.7325 47.7615 46.779 48.808 47.2701 50.1352Z" fill="#B7ACFF"/>
<path d="M9.66892 20.7702C11.3265 16.2907 14.8583 12.7589 19.3378 11.1013C14.8583 9.44372 11.3265 5.91189 9.66892 1.43237C8.01135 5.91189 4.47952 9.44372 0 11.1013C4.47952 12.7589 8.01135 16.2907 9.66892 20.7702Z" fill="#B7ACFF"/>
<path d="M71.832 25V8.2H82.512V9.736H73.104L73.56 9.28L73.584 25H71.832ZM91.9303 25L99.6103 8.2H101.362L109.042 25H107.17L100.114 9.232H100.834L93.7783 25H91.9303ZM94.9543 20.512L95.4823 19.072H105.25L105.778 20.512H94.9543ZM123.038 25.144C122.814 25.144 122.598 25.128 122.39 25.096C122.182 25.08 121.95 25.04 121.694 24.976L121.838 23.392C122.11 23.456 122.374 23.488 122.63 23.488C123.35 23.488 123.926 23.208 124.358 22.648C124.806 22.072 125.142 21.192 125.366 20.008C125.59 18.808 125.734 17.272 125.798 15.4L126.038 8.2H137.438V25H135.686V9.256L136.142 9.736H127.166L127.598 9.232L127.382 15.352C127.318 17.032 127.198 18.488 127.022 19.72C126.846 20.936 126.59 21.952 126.254 22.768C125.918 23.568 125.486 24.168 124.958 24.568C124.43 24.952 123.79 25.144 123.038 25.144ZM152.633 25L160.313 8.2H162.065L169.745 25H167.873L160.817 9.232H161.537L154.481 25H152.633ZM155.657 20.512L156.185 19.072H165.953L166.481 20.512H155.657ZM196.461 25L190.005 16.624L191.445 15.76L198.501 25H196.461ZM184.965 25V8.2H186.693V25H184.965ZM186.165 17.296V15.736H191.421V17.296H186.165ZM191.589 16.792L189.957 16.504L196.221 8.2H198.141L191.589 16.792ZM216.426 25V9.256L216.906 9.736H210.522V8.2H224.082V9.736H217.722L218.178 9.256V25H216.426ZM239.199 25V8.2H240.951V22.12L251.703 8.2H253.311V25H251.559V11.104L240.807 25H239.199ZM282.476 25L276.02 16.624L277.46 15.76L284.516 25H282.476ZM270.98 25V8.2H272.708V25H270.98ZM272.18 17.296V15.736H277.436V17.296H272.18ZM277.604 16.792L275.972 16.504L282.236 8.2H284.156L277.604 16.792ZM296.587 25L304.267 8.2H306.019L313.699 25H311.827L304.771 9.232H305.491L298.435 25H296.587ZM299.611 20.512L300.139 19.072H309.907L310.435 20.512H299.611Z" fill="#32445F"/>
<path opacity="0.5" d="M70.308 42V33.6H77.544V42H76.368V34.332L76.656 34.644H71.196L71.496 34.332V42H70.308ZM85.2635 42.096C84.6235 42.096 84.0275 41.988 83.4755 41.772C82.9315 41.556 82.4595 41.256 82.0595 40.872C81.6595 40.48 81.3475 40.024 81.1235 39.504C80.8995 38.984 80.7875 38.416 80.7875 37.8C80.7875 37.184 80.8995 36.616 81.1235 36.096C81.3475 35.576 81.6595 35.124 82.0595 34.74C82.4595 34.348 82.9315 34.044 83.4755 33.828C84.0195 33.612 84.6155 33.504 85.2635 33.504C85.9035 33.504 86.4915 33.612 87.0275 33.828C87.5715 34.036 88.0435 34.336 88.4435 34.728C88.8515 35.112 89.1635 35.564 89.3795 36.084C89.6035 36.604 89.7155 37.176 89.7155 37.8C89.7155 38.424 89.6035 38.996 89.3795 39.516C89.1635 40.036 88.8515 40.492 88.4435 40.884C88.0435 41.268 87.5715 41.568 87.0275 41.784C86.4915 41.992 85.9035 42.096 85.2635 42.096ZM85.2635 41.028C85.7275 41.028 86.1555 40.948 86.5475 40.788C86.9475 40.628 87.2915 40.404 87.5795 40.116C87.8755 39.82 88.1035 39.476 88.2635 39.084C88.4315 38.692 88.5155 38.264 88.5155 37.8C88.5155 37.336 88.4315 36.908 88.2635 36.516C88.1035 36.124 87.8755 35.784 87.5795 35.496C87.2915 35.2 86.9475 34.972 86.5475 34.812C86.1555 34.652 85.7275 34.572 85.2635 34.572C84.7915 34.572 84.3555 34.652 83.9555 34.812C83.5635 34.972 83.2195 35.2 82.9235 35.496C82.6275 35.784 82.3955 36.124 82.2275 36.516C82.0675 36.908 81.9875 37.336 81.9875 37.8C81.9875 38.264 82.0675 38.692 82.2275 39.084C82.3955 39.476 82.6275 39.82 82.9235 40.116C83.2195 40.404 83.5635 40.628 83.9555 40.788C84.3555 40.948 84.7915 41.028 85.2635 41.028ZM96.7313 42.096C96.0913 42.096 95.4993 41.992 94.9553 41.784C94.4193 41.568 93.9513 41.268 93.5513 40.884C93.1593 40.492 92.8513 40.036 92.6273 39.516C92.4033 38.996 92.2913 38.424 92.2913 37.8C92.2913 37.176 92.4033 36.604 92.6273 36.084C92.8513 35.564 93.1633 35.112 93.5633 34.728C93.9633 34.336 94.4313 34.036 94.9673 33.828C95.5113 33.612 96.1033 33.504 96.7433 33.504C97.3913 33.504 97.9873 33.616 98.5313 33.84C99.0833 34.056 99.5513 34.38 99.9353 34.812L99.1553 35.568C98.8353 35.232 98.4753 34.984 98.0753 34.824C97.6753 34.656 97.2473 34.572 96.7913 34.572C96.3193 34.572 95.8793 34.652 95.4713 34.812C95.0713 34.972 94.7233 35.196 94.4273 35.484C94.1313 35.772 93.8993 36.116 93.7313 36.516C93.5713 36.908 93.4913 37.336 93.4913 37.8C93.4913 38.264 93.5713 38.696 93.7313 39.096C93.8993 39.488 94.1313 39.828 94.4273 40.116C94.7233 40.404 95.0713 40.628 95.4713 40.788C95.8793 40.948 96.3193 41.028 96.7913 41.028C97.2473 41.028 97.6753 40.948 98.0753 40.788C98.4753 40.62 98.8353 40.364 99.1553 40.02L99.9353 40.776C99.5513 41.208 99.0833 41.536 98.5313 41.76C97.9873 41.984 97.3873 42.096 96.7313 42.096ZM104.531 42V34.332L104.831 34.644H101.663V33.6H108.587V34.644H105.419L105.707 34.332V42H104.531ZM109.779 42L113.583 33.6H114.771L118.587 42H117.327L113.931 34.272H114.411L111.015 42H109.779ZM111.399 39.9L111.723 38.94H116.451L116.799 39.9H111.399ZM121.357 42V33.6H124.969C125.881 33.6 126.597 33.784 127.117 34.152C127.637 34.52 127.897 35.056 127.897 35.76C127.897 36.448 127.649 36.976 127.153 37.344C126.657 37.704 126.005 37.884 125.197 37.884L125.413 37.524C126.349 37.524 127.065 37.712 127.561 38.088C128.065 38.456 128.317 38.996 128.317 39.708C128.317 40.428 128.053 40.992 127.525 41.4C127.005 41.8 126.229 42 125.197 42H121.357ZM122.545 41.052H125.173C125.813 41.052 126.293 40.936 126.613 40.704C126.941 40.464 127.105 40.1 127.105 39.612C127.105 39.124 126.941 38.768 126.613 38.544C126.293 38.32 125.813 38.208 125.173 38.208H122.545V41.052ZM122.545 37.296H124.885C125.469 37.296 125.913 37.18 126.217 36.948C126.529 36.716 126.685 36.376 126.685 35.928C126.685 35.472 126.529 35.128 126.217 34.896C125.913 34.664 125.469 34.548 124.885 34.548H122.545V37.296ZM136.598 40.956L136.322 41.268V33.6H137.498V41.268L137.198 40.956H141.29L140.99 41.268V33.6H142.166V42H131.642V33.6H132.83V41.268L132.53 40.956H136.598ZM142.322 43.836V41.688L142.622 42H140.966V40.956H143.426V43.836H142.322ZM146.415 42V33.6H147.603V40.08L152.571 33.6H153.675V42H152.499V35.532L147.519 42H146.415ZM163.266 42L160.218 37.86L161.19 37.26L164.634 42H163.266ZM157.614 42V33.6H158.79V42H157.614ZM158.43 38.304V37.248H161.154V38.304H158.43ZM161.298 37.932L160.194 37.764L163.206 33.6H164.49L161.298 37.932ZM171.96 42V33.6H173.16V42H171.96ZM178.663 42V34.644H175.783V33.6H182.731V34.644H179.851V42H178.663ZM193.728 42.096C193.088 42.096 192.492 41.988 191.94 41.772C191.396 41.556 190.924 41.256 190.524 40.872C190.124 40.48 189.812 40.024 189.588 39.504C189.364 38.984 189.252 38.416 189.252 37.8C189.252 37.184 189.364 36.616 189.588 36.096C189.812 35.576 190.124 35.124 190.524 34.74C190.924 34.348 191.396 34.044 191.94 33.828C192.484 33.612 193.08 33.504 193.728 33.504C194.368 33.504 194.956 33.612 195.492 33.828C196.036 34.036 196.508 34.336 196.908 34.728C197.316 35.112 197.628 35.564 197.844 36.084C198.068 36.604 198.18 37.176 198.18 37.8C198.18 38.424 198.068 38.996 197.844 39.516C197.628 40.036 197.316 40.492 196.908 40.884C196.508 41.268 196.036 41.568 195.492 41.784C194.956 41.992 194.368 42.096 193.728 42.096ZM193.728 41.028C194.192 41.028 194.62 40.948 195.012 40.788C195.412 40.628 195.756 40.404 196.044 40.116C196.34 39.82 196.568 39.476 196.728 39.084C196.896 38.692 196.98 38.264 196.98 37.8C196.98 37.336 196.896 36.908 196.728 36.516C196.568 36.124 196.34 35.784 196.044 35.496C195.756 35.2 195.412 34.972 195.012 34.812C194.62 34.652 194.192 34.572 193.728 34.572C193.256 34.572 192.82 34.652 192.42 34.812C192.028 34.972 191.684 35.2 191.388 35.496C191.092 35.784 190.86 36.124 190.692 36.516C190.532 36.908 190.452 37.336 190.452 37.8C190.452 38.264 190.532 38.692 190.692 39.084C190.86 39.476 191.092 39.82 191.388 40.116C191.684 40.404 192.028 40.628 192.42 40.788C192.82 40.948 193.256 41.028 193.728 41.028ZM201.44 42V33.6H207.776V34.62H202.628V37.02H205.244C206.244 37.02 207.004 37.228 207.524 37.644C208.044 38.06 208.304 38.664 208.304 39.456C208.304 40.272 208.02 40.9 207.452 41.34C206.892 41.78 206.088 42 205.04 42H201.44ZM202.628 41.052H204.992C205.688 41.052 206.212 40.92 206.564 40.656C206.924 40.392 207.104 40 207.104 39.48C207.104 38.472 206.4 37.968 204.992 37.968H202.628V41.052ZM215.318 42.096C214.678 42.096 214.082 41.988 213.53 41.772C212.986 41.556 212.514 41.256 212.114 40.872C211.714 40.48 211.402 40.024 211.178 39.504C210.954 38.984 210.842 38.416 210.842 37.8C210.842 37.184 210.954 36.616 211.178 36.096C211.402 35.576 211.714 35.124 212.114 34.74C212.514 34.348 212.986 34.044 213.53 33.828C214.074 33.612 214.67 33.504 215.318 33.504C215.958 33.504 216.546 33.612 217.082 33.828C217.626 34.036 218.098 34.336 218.498 34.728C218.906 35.112 219.218 35.564 219.434 36.084C219.658 36.604 219.77 37.176 219.77 37.8C219.77 38.424 219.658 38.996 219.434 39.516C219.218 40.036 218.906 40.492 218.498 40.884C218.098 41.268 217.626 41.568 217.082 41.784C216.546 41.992 215.958 42.096 215.318 42.096ZM215.318 41.028C215.782 41.028 216.21 40.948 216.602 40.788C217.002 40.628 217.346 40.404 217.634 40.116C217.93 39.82 218.158 39.476 218.318 39.084C218.486 38.692 218.57 38.264 218.57 37.8C218.57 37.336 218.486 36.908 218.318 36.516C218.158 36.124 217.93 35.784 217.634 35.496C217.346 35.2 217.002 34.972 216.602 34.812C216.21 34.652 215.782 34.572 215.318 34.572C214.846 34.572 214.41 34.652 214.01 34.812C213.618 34.972 213.274 35.2 212.978 35.496C212.682 35.784 212.45 36.124 212.282 36.516C212.122 36.908 212.042 37.336 212.042 37.8C212.042 38.264 212.122 38.692 212.282 39.084C212.45 39.476 212.682 39.82 212.978 40.116C213.274 40.404 213.618 40.628 214.01 40.788C214.41 40.948 214.846 41.028 215.318 41.028ZM223.03 42V33.6H226.306C227.042 33.6 227.67 33.716 228.19 33.948C228.71 34.18 229.11 34.516 229.39 34.956C229.67 35.396 229.81 35.92 229.81 36.528C229.81 37.136 229.67 37.66 229.39 38.1C229.11 38.532 228.71 38.868 228.19 39.108C227.67 39.34 227.042 39.456 226.306 39.456H223.69L224.23 38.892V42H223.03ZM224.23 39.012L223.69 38.412H226.27C227.038 38.412 227.618 38.248 228.01 37.92C228.41 37.592 228.61 37.128 228.61 36.528C228.61 35.928 228.41 35.464 228.01 35.136C227.618 34.808 227.038 34.644 226.27 34.644H223.69L224.23 34.044V39.012ZM232.587 40.944C233.003 41.096 233.387 41.136 233.739 41.064C234.091 40.984 234.407 40.716 234.687 40.26L235.095 39.612L235.215 39.48L238.299 33.6H239.487L235.755 40.512C235.475 41.04 235.147 41.44 234.771 41.712C234.403 41.976 234.003 42.12 233.571 42.144C233.147 42.176 232.715 42.096 232.275 41.904L232.587 40.944ZM235.179 40.548L231.495 33.6H232.779L235.839 39.588L235.179 40.548ZM247.539 41.436V34.644H243.855L243.795 36.408C243.771 37 243.731 37.568 243.675 38.112C243.627 38.656 243.555 39.148 243.459 39.588C243.363 40.02 243.227 40.376 243.051 40.656C242.883 40.936 242.667 41.108 242.403 41.172L241.107 40.956C241.419 40.98 241.675 40.876 241.875 40.644C242.083 40.404 242.243 40.072 242.355 39.648C242.475 39.216 242.563 38.716 242.619 38.148C242.675 37.572 242.715 36.956 242.739 36.3L242.823 33.6H248.727V41.436H247.539ZM240.807 43.836L240.819 40.956H249.963V43.836H248.847V42H241.935L241.923 43.836H240.807ZM256.703 42.096C256.063 42.096 255.467 41.988 254.915 41.772C254.371 41.556 253.899 41.256 253.499 40.872C253.099 40.48 252.787 40.024 252.563 39.504C252.339 38.984 252.227 38.416 252.227 37.8C252.227 37.184 252.339 36.616 252.563 36.096C252.787 35.576 253.099 35.124 253.499 34.74C253.899 34.348 254.371 34.044 254.915 33.828C255.459 33.612 256.055 33.504 256.703 33.504C257.343 33.504 257.931 33.612 258.467 33.828C259.011 34.036 259.483 34.336 259.883 34.728C260.291 35.112 260.603 35.564 260.819 36.084C261.043 36.604 261.155 37.176 261.155 37.8C261.155 38.424 261.043 38.996 260.819 39.516C260.603 40.036 260.291 40.492 259.883 40.884C259.483 41.268 259.011 41.568 258.467 41.784C257.931 41.992 257.343 42.096 256.703 42.096ZM256.703 41.028C257.167 41.028 257.595 40.948 257.987 40.788C258.387 40.628 258.731 40.404 259.019 40.116C259.315 39.82 259.543 39.476 259.703 39.084C259.871 38.692 259.955 38.264 259.955 37.8C259.955 37.336 259.871 36.908 259.703 36.516C259.543 36.124 259.315 35.784 259.019 35.496C258.731 35.2 258.387 34.972 257.987 34.812C257.595 34.652 257.167 34.572 256.703 34.572C256.231 34.572 255.795 34.652 255.395 34.812C255.003 34.972 254.659 35.2 254.363 35.496C254.067 35.784 253.835 36.124 253.667 36.516C253.507 36.908 253.427 37.336 253.427 37.8C253.427 38.264 253.507 38.692 253.667 39.084C253.835 39.476 254.067 39.82 254.363 40.116C254.659 40.404 255.003 40.628 255.395 40.788C255.795 40.948 256.231 41.028 256.703 41.028ZM264.415 42V33.6H268.027C268.939 33.6 269.655 33.784 270.175 34.152C270.695 34.52 270.955 35.056 270.955 35.76C270.955 36.448 270.707 36.976 270.211 37.344C269.715 37.704 269.063 37.884 268.255 37.884L268.471 37.524C269.407 37.524 270.123 37.712 270.619 38.088C271.123 38.456 271.375 38.996 271.375 39.708C271.375 40.428 271.111 40.992 270.583 41.4C270.063 41.8 269.287 42 268.255 42H264.415ZM265.603 41.052H268.231C268.871 41.052 269.351 40.936 269.671 40.704C269.999 40.464 270.163 40.1 270.163 39.612C270.163 39.124 269.999 38.768 269.671 38.544C269.351 38.32 268.871 38.208 268.231 38.208H265.603V41.052ZM265.603 37.296H267.943C268.527 37.296 268.971 37.18 269.275 36.948C269.587 36.716 269.743 36.376 269.743 35.928C269.743 35.472 269.587 35.128 269.275 34.896C268.971 34.664 268.527 34.548 267.943 34.548H265.603V37.296ZM273.536 42L277.34 33.6H278.528L282.344 42H281.084L277.688 34.272H278.168L274.772 42H273.536ZM275.156 39.9L275.48 38.94H280.208L280.556 39.9H275.156ZM291.138 33.6H292.338V42H291.138V33.6ZM286.314 42H285.114V33.6H286.314V42ZM291.246 38.256H286.194V37.212H291.246V38.256ZM296.277 42V33.6H297.465V40.08L302.433 33.6H303.537V42H302.361V35.532L297.381 42H296.277ZM312.456 42V39.264L312.768 39.552H310.14C309.46 39.552 308.872 39.436 308.376 39.204C307.888 38.972 307.512 38.64 307.248 38.208C306.992 37.768 306.864 37.24 306.864 36.624C306.864 35.984 307.004 35.44 307.284 34.992C307.564 34.536 307.96 34.192 308.472 33.96C308.984 33.72 309.58 33.6 310.26 33.6H313.632V42H312.456ZM306.864 42L308.94 39.024H310.164L308.136 42H306.864ZM312.456 38.88V34.296L312.768 34.644H310.308C309.588 34.644 309.036 34.812 308.652 35.148C308.268 35.476 308.076 35.964 308.076 36.612C308.076 37.228 308.256 37.704 308.616 38.04C308.984 38.376 309.524 38.544 310.236 38.544H312.768L312.456 38.88Z" fill="#32445F"/>
<defs>
<linearGradient id="paint0_linear_3_5121" x1="2.86475" y1="0" x2="52.9999" y2="50.1351" gradientUnits="userSpaceOnUse">
<stop stop-color="#3A31F7"/>
<stop offset="0.515625" stop-color="#6758E6"/>
<stop offset="1" stop-color="#9179FA"/>
</linearGradient>
</defs>
</svg>
