<svg width="94" height="292" viewBox="0 0 94 292" fill="none" xmlns="http://www.w3.org/2000/svg">
<g opacity="0.1">
<rect y="292" width="6" height="6" transform="rotate(-90 0 292)" fill="#32445F"/>
<rect x="22" y="292" width="6" height="6" transform="rotate(-90 22 292)" fill="#32445F"/>
<rect x="44" y="292" width="6" height="6" transform="rotate(-90 44 292)" fill="#32445F"/>
<rect x="66" y="292" width="6" height="6" transform="rotate(-90 66 292)" fill="#32445F"/>
<rect x="88" y="292" width="6" height="6" transform="rotate(-90 88 292)" fill="#32445F"/>
<rect y="270" width="6" height="6" transform="rotate(-90 0 270)" fill="#32445F"/>
<rect x="22" y="270" width="6" height="6" transform="rotate(-90 22 270)" fill="#32445F"/>
<rect x="44" y="270" width="6" height="6" transform="rotate(-90 44 270)" fill="#32445F"/>
<rect x="66" y="270" width="6" height="6" transform="rotate(-90 66 270)" fill="#32445F"/>
<rect x="88" y="270" width="6" height="6" transform="rotate(-90 88 270)" fill="#32445F"/>
<rect y="248" width="6" height="6" transform="rotate(-90 0 248)" fill="#32445F"/>
<rect x="22" y="248" width="6" height="6" transform="rotate(-90 22 248)" fill="#32445F"/>
<rect x="44" y="248" width="6" height="6" transform="rotate(-90 44 248)" fill="#32445F"/>
<rect x="66" y="248" width="6" height="6" transform="rotate(-90 66 248)" fill="#32445F"/>
<rect x="88" y="248" width="6" height="6" transform="rotate(-90 88 248)" fill="#32445F"/>
<rect y="226" width="6" height="6" transform="rotate(-90 0 226)" fill="#32445F"/>
<rect x="22" y="226" width="6" height="6" transform="rotate(-90 22 226)" fill="#32445F"/>
<rect x="44" y="226" width="6" height="6" transform="rotate(-90 44 226)" fill="#32445F"/>
<rect x="66" y="226" width="6" height="6" transform="rotate(-90 66 226)" fill="#32445F"/>
<rect x="88" y="226" width="6" height="6" transform="rotate(-90 88 226)" fill="#32445F"/>
<rect y="204" width="6" height="6" transform="rotate(-90 0 204)" fill="#32445F"/>
<rect x="22" y="204" width="6" height="6" transform="rotate(-90 22 204)" fill="#32445F"/>
<rect x="44" y="204" width="6" height="6" transform="rotate(-90 44 204)" fill="#32445F"/>
<rect x="66" y="204" width="6" height="6" transform="rotate(-90 66 204)" fill="#32445F"/>
<rect x="88" y="204" width="6" height="6" transform="rotate(-90 88 204)" fill="#32445F"/>
<rect y="182" width="6" height="6" transform="rotate(-90 0 182)" fill="#32445F"/>
<rect x="22" y="182" width="6" height="6" transform="rotate(-90 22 182)" fill="#32445F"/>
<rect x="44" y="182" width="6" height="6" transform="rotate(-90 44 182)" fill="#32445F"/>
<rect x="66" y="182" width="6" height="6" transform="rotate(-90 66 182)" fill="#32445F"/>
<rect x="88" y="182" width="6" height="6" transform="rotate(-90 88 182)" fill="#32445F"/>
<rect y="160" width="6" height="6" transform="rotate(-90 0 160)" fill="#32445F"/>
<rect x="22" y="160" width="6" height="6" transform="rotate(-90 22 160)" fill="#32445F"/>
<rect x="44" y="160" width="6" height="6" transform="rotate(-90 44 160)" fill="#32445F"/>
<rect x="66" y="160" width="6" height="6" transform="rotate(-90 66 160)" fill="#32445F"/>
<rect x="88" y="160" width="6" height="6" transform="rotate(-90 88 160)" fill="#32445F"/>
<rect y="138" width="6" height="6" transform="rotate(-90 0 138)" fill="#32445F"/>
<rect x="22" y="138" width="6" height="6" transform="rotate(-90 22 138)" fill="#32445F"/>
<rect x="44" y="138" width="6" height="6" transform="rotate(-90 44 138)" fill="#32445F"/>
<rect x="66" y="138" width="6" height="6" transform="rotate(-90 66 138)" fill="#32445F"/>
<rect x="88" y="138" width="6" height="6" transform="rotate(-90 88 138)" fill="#32445F"/>
<rect y="116" width="6" height="6" transform="rotate(-90 0 116)" fill="#32445F"/>
<rect x="22" y="116" width="6" height="6" transform="rotate(-90 22 116)" fill="#32445F"/>
<rect x="44" y="116" width="6" height="6" transform="rotate(-90 44 116)" fill="#32445F"/>
<rect x="66" y="116" width="6" height="6" transform="rotate(-90 66 116)" fill="#32445F"/>
<rect x="88" y="116" width="6" height="6" transform="rotate(-90 88 116)" fill="#32445F"/>
<rect y="94" width="6" height="6" transform="rotate(-90 0 94)" fill="#32445F"/>
<rect x="22" y="94" width="6" height="6" transform="rotate(-90 22 94)" fill="#32445F"/>
<rect x="44" y="94" width="6" height="6" transform="rotate(-90 44 94)" fill="#32445F"/>
<rect x="66" y="94" width="6" height="6" transform="rotate(-90 66 94)" fill="#32445F"/>
<rect x="88" y="94" width="6" height="6" transform="rotate(-90 88 94)" fill="#32445F"/>
<rect y="72" width="6" height="6" transform="rotate(-90 0 72)" fill="#32445F"/>
<rect x="22" y="72" width="6" height="6" transform="rotate(-90 22 72)" fill="#32445F"/>
<rect x="44" y="72" width="6" height="6" transform="rotate(-90 44 72)" fill="#32445F"/>
<rect x="66" y="72" width="6" height="6" transform="rotate(-90 66 72)" fill="#32445F"/>
<rect x="88" y="72" width="6" height="6" transform="rotate(-90 88 72)" fill="#32445F"/>
<rect y="50" width="6" height="6" transform="rotate(-90 0 50)" fill="#32445F"/>
<rect x="22" y="50" width="6" height="6" transform="rotate(-90 22 50)" fill="#32445F"/>
<rect x="44" y="50" width="6" height="6" transform="rotate(-90 44 50)" fill="#32445F"/>
<rect x="66" y="50" width="6" height="6" transform="rotate(-90 66 50)" fill="#32445F"/>
<rect x="88" y="50" width="6" height="6" transform="rotate(-90 88 50)" fill="#32445F"/>
<rect y="28" width="6" height="6" transform="rotate(-90 0 28)" fill="#32445F"/>
<rect x="22" y="28" width="6" height="6" transform="rotate(-90 22 28)" fill="#32445F"/>
<rect x="44" y="28" width="6" height="6" transform="rotate(-90 44 28)" fill="#32445F"/>
<rect x="66" y="28" width="6" height="6" transform="rotate(-90 66 28)" fill="#32445F"/>
<rect x="88" y="28" width="6" height="6" transform="rotate(-90 88 28)" fill="#32445F"/>
<rect y="6" width="6" height="6" transform="rotate(-90 0 6)" fill="#32445F"/>
<rect x="22" y="6" width="6" height="6" transform="rotate(-90 22 6)" fill="#32445F"/>
<rect x="44" y="6" width="6" height="6" transform="rotate(-90 44 6)" fill="#32445F"/>
<rect x="66" y="6" width="6" height="6" transform="rotate(-90 66 6)" fill="#32445F"/>
<rect x="88" y="6" width="6" height="6" transform="rotate(-90 88 6)" fill="#32445F"/>
</g>
</svg>
