<svg width="95" height="40" viewBox="0 0 95 40" fill="none" xmlns="http://www.w3.org/2000/svg">
<path d="M3.5643 7.39318V11.1592H2.3743V1.35918C2.7663 1.35918 3.18163 1.35451 3.6203 1.34518C4.05896 1.33585 4.49763 1.33118 4.9363 1.33118C6.2243 1.33118 7.1483 1.62051 7.7083 2.19918C8.27763 2.76851 8.5623 3.49185 8.5623 4.36918C8.5623 5.21851 8.2543 5.94651 7.6383 6.55318C7.04096 7.15051 6.17296 7.44918 5.0343 7.44918C4.43696 7.44918 3.94696 7.43051 3.5643 7.39318ZM5.0483 2.45118C4.8803 2.45118 4.38563 2.46051 3.5643 2.47918V6.25918C4.1523 6.30585 4.6283 6.32918 4.9923 6.32918C5.71096 6.32918 6.27563 6.15651 6.6863 5.81118C7.09696 5.45651 7.3023 4.97118 7.3023 4.35518C7.3023 3.74851 7.11096 3.28185 6.7283 2.95518C6.35496 2.61918 5.79496 2.45118 5.0483 2.45118ZM10.0139 6.18918L9.71992 5.29318C10.3453 4.91051 11.0453 4.71918 11.8199 4.71918C12.6693 4.71918 13.2853 4.92918 13.6679 5.34918C14.0506 5.76918 14.2419 6.41785 14.2419 7.29518V11.1592H13.1779V10.3472C12.6833 10.9538 12.0113 11.2572 11.1619 11.2572C10.5833 11.2572 10.1166 11.0845 9.76192 10.7392C9.40726 10.3845 9.22992 9.90851 9.22992 9.31118C9.22992 8.69518 9.44926 8.20985 9.88792 7.85518C10.3266 7.49118 10.9006 7.30918 11.6099 7.30918C12.2726 7.30918 12.7953 7.44451 13.1779 7.71518C13.1779 7.00585 13.0799 6.49718 12.8839 6.18918C12.6879 5.88118 12.3099 5.72718 11.7499 5.72718C11.1806 5.72718 10.6019 5.88118 10.0139 6.18918ZM11.5539 10.2492C12.1793 10.2492 12.7206 9.97851 13.1779 9.43718V8.63918C12.7859 8.35918 12.3146 8.21918 11.7639 8.21918C11.3813 8.21918 11.0593 8.31251 10.7979 8.49918C10.5459 8.67651 10.4199 8.92851 10.4199 9.25518C10.4199 9.56318 10.5179 9.80585 10.7139 9.98318C10.9193 10.1605 11.1993 10.2492 11.5539 10.2492ZM18.2034 11.2992C17.7274 11.2992 17.2234 11.2198 16.6914 11.0612C16.178 10.8932 15.814 10.6878 15.5994 10.4452L16.1734 9.60518C16.4254 9.81051 16.724 9.97851 17.0694 10.1092C17.424 10.2305 17.746 10.2912 18.0354 10.2912C18.5207 10.2912 18.9174 10.1978 19.2254 10.0112C19.5334 9.81518 19.6874 9.56318 19.6874 9.25518C19.6874 8.99385 19.5754 8.79318 19.3514 8.65318C19.1367 8.51318 18.838 8.44318 18.4554 8.44318H17.3914V7.53318H18.3854C18.7027 7.53318 18.964 7.44918 19.1694 7.28118C19.3747 7.10385 19.4774 6.88918 19.4774 6.63718C19.4774 6.35718 19.356 6.13785 19.1134 5.97918C18.8707 5.81118 18.544 5.72718 18.1334 5.72718C17.4707 5.72718 16.8407 5.96051 16.2434 6.42718L15.8094 5.55918C16.0614 5.29785 16.4114 5.09251 16.8594 4.94318C17.3167 4.79385 17.7974 4.71918 18.3014 4.71918C19.048 4.71918 19.6267 4.86851 20.0374 5.16718C20.4574 5.46585 20.6674 5.88118 20.6674 6.41318C20.6674 7.14118 20.2987 7.63585 19.5614 7.89718V7.92518C19.972 7.97185 20.294 8.13518 20.5274 8.41518C20.7607 8.68585 20.8774 9.01718 20.8774 9.40918C20.8774 9.98785 20.63 10.4498 20.1354 10.7952C19.65 11.1312 19.006 11.2992 18.2034 11.2992ZM23.7042 13.9592H22.5842V4.85918H23.7042V5.60118C23.9282 5.33985 24.2362 5.12985 24.6282 4.97118C25.0202 4.80318 25.4262 4.71918 25.8462 4.71918C26.7422 4.71918 27.4468 5.01785 27.9602 5.61518C28.4922 6.20318 28.7582 6.96851 28.7582 7.91118C28.7582 8.87251 28.4548 9.67985 27.8482 10.3332C27.2508 10.9772 26.4622 11.2992 25.4822 11.2992C24.7262 11.2992 24.1335 11.1545 23.7042 10.8652V13.9592ZM25.5242 5.76918C24.7775 5.76918 24.1708 6.05851 23.7042 6.63718V9.75918C24.1988 10.0858 24.7588 10.2492 25.3842 10.2492C26.0468 10.2492 26.5742 10.0392 26.9662 9.61918C27.3675 9.18985 27.5682 8.63451 27.5682 7.95318C27.5682 7.29051 27.3862 6.76318 27.0222 6.37118C26.6582 5.96985 26.1588 5.76918 25.5242 5.76918ZM30.6995 6.18918L30.4055 5.29318C31.0308 4.91051 31.7308 4.71918 32.5055 4.71918C33.3548 4.71918 33.9708 4.92918 34.3535 5.34918C34.7361 5.76918 34.9275 6.41785 34.9275 7.29518V11.1592H33.8635V10.3472C33.3688 10.9538 32.6968 11.2572 31.8475 11.2572C31.2688 11.2572 30.8021 11.0845 30.4475 10.7392C30.0928 10.3845 29.9155 9.90851 29.9155 9.31118C29.9155 8.69518 30.1348 8.20985 30.5735 7.85518C31.0121 7.49118 31.5861 7.30918 32.2955 7.30918C32.9581 7.30918 33.4808 7.44451 33.8635 7.71518C33.8635 7.00585 33.7655 6.49718 33.5695 6.18918C33.3735 5.88118 32.9955 5.72718 32.4355 5.72718C31.8661 5.72718 31.2875 5.88118 30.6995 6.18918ZM32.2395 10.2492C32.8648 10.2492 33.4061 9.97851 33.8635 9.43718V8.63918C33.4715 8.35918 33.0001 8.21918 32.4495 8.21918C32.0668 8.21918 31.7448 8.31251 31.4835 8.49918C31.2315 8.67651 31.1055 8.92851 31.1055 9.25518C31.1055 9.56318 31.2035 9.80585 31.3995 9.98318C31.6048 10.1605 31.8848 10.2492 32.2395 10.2492ZM41.6749 1.21918L42.2769 2.10118C42.0529 2.40918 41.7823 2.61918 41.4649 2.73118C41.1196 2.85251 40.7276 2.94585 40.2889 3.01118C39.8596 3.07651 39.4536 3.19318 39.0709 3.36118C38.1189 3.79985 37.5869 4.81251 37.4749 6.39918H37.5029C37.7083 5.96051 38.0396 5.60585 38.4969 5.33518C38.9636 5.06451 39.4629 4.92918 39.9949 4.92918C40.8909 4.92918 41.6003 5.21385 42.1229 5.78318C42.6549 6.35251 42.9209 7.11318 42.9209 8.06518C42.9209 8.96118 42.6176 9.72651 42.0109 10.3612C41.4136 10.9865 40.6389 11.2992 39.6869 11.2992C38.6603 11.2992 37.8483 10.9492 37.2509 10.2492C36.6536 9.55851 36.3549 8.60185 36.3549 7.37918C36.3549 4.65385 37.1343 2.95985 38.6929 2.29718C39.0476 2.13851 39.4583 2.02185 39.9249 1.94718C40.2889 1.88185 40.5503 1.83051 40.7089 1.79318C40.8676 1.75585 41.0356 1.69051 41.2129 1.59718C41.3996 1.50385 41.5536 1.37785 41.6749 1.21918ZM37.5449 7.58918C37.5449 8.39185 37.7409 9.03585 38.1329 9.52118C38.5249 10.0065 39.0336 10.2492 39.6589 10.2492C40.2656 10.2492 40.7603 10.0438 41.1429 9.63318C41.5349 9.23185 41.7309 8.72785 41.7309 8.12118C41.7309 7.47718 41.5489 6.95918 41.1849 6.56718C40.8303 6.17518 40.3403 5.97918 39.7149 5.97918C39.1456 5.97918 38.6696 6.13785 38.2869 6.45518C37.8856 6.78185 37.6383 7.15985 37.5449 7.58918ZM45.0315 10.3752C44.4155 9.74051 44.1075 8.95185 44.1075 8.00918C44.1075 7.05718 44.4155 6.27318 45.0315 5.65718C45.6569 5.03185 46.4689 4.71918 47.4675 4.71918C48.4662 4.71918 49.2735 5.03185 49.8895 5.65718C50.5149 6.27318 50.8275 7.05718 50.8275 8.00918C50.8275 8.96118 50.5149 9.74985 49.8895 10.3752C49.2735 10.9912 48.4662 11.2992 47.4675 11.2992C46.4782 11.2992 45.6662 10.9912 45.0315 10.3752ZM45.9135 6.39918C45.5029 6.80985 45.2975 7.34651 45.2975 8.00918C45.2975 8.67185 45.4982 9.20851 45.8995 9.61918C46.3102 10.0392 46.8329 10.2492 47.4675 10.2492C48.1022 10.2492 48.6202 10.0438 49.0215 9.63318C49.4322 9.21318 49.6375 8.67185 49.6375 8.00918C49.6375 7.36518 49.4322 6.82851 49.0215 6.39918C48.6202 5.97918 48.1022 5.76918 47.4675 5.76918C46.8329 5.76918 46.3149 5.97918 45.9135 6.39918ZM53.7095 5.97918H51.3995V4.85918H57.1395V5.97918H54.8295V11.1592H53.7095V5.97918ZM58.6995 6.18918L58.4055 5.29318C59.0308 4.91051 59.7308 4.71918 60.5055 4.71918C61.3548 4.71918 61.9708 4.92918 62.3535 5.34918C62.7361 5.76918 62.9275 6.41785 62.9275 7.29518V11.1592H61.8635V10.3472C61.3688 10.9538 60.6968 11.2572 59.8475 11.2572C59.2688 11.2572 58.8021 11.0845 58.4475 10.7392C58.0928 10.3845 57.9155 9.90851 57.9155 9.31118C57.9155 8.69518 58.1348 8.20985 58.5735 7.85518C59.0121 7.49118 59.5861 7.30918 60.2955 7.30918C60.9581 7.30918 61.4808 7.44451 61.8635 7.71518C61.8635 7.00585 61.7655 6.49718 61.5695 6.18918C61.3735 5.88118 60.9955 5.72718 60.4355 5.72718C59.8661 5.72718 59.2875 5.88118 58.6995 6.18918ZM60.2395 10.2492C60.8648 10.2492 61.4061 9.97851 61.8635 9.43718V8.63918C61.4715 8.35918 61.0001 8.21918 60.4495 8.21918C60.0668 8.21918 59.7448 8.31251 59.4835 8.49918C59.2315 8.67651 59.1055 8.92851 59.1055 9.25518C59.1055 9.56318 59.2035 9.80585 59.3995 9.98318C59.6048 10.1605 59.8848 10.2492 60.2395 10.2492ZM70.5429 11.1592H69.4229V8.49918H65.9229V11.1592H64.8029V4.85918H65.9229V7.44918H69.4229V4.85918H70.5429V11.1592ZM73.0725 10.3752C72.4565 9.74051 72.1485 8.95185 72.1485 8.00918C72.1485 7.05718 72.4565 6.27318 73.0725 5.65718C73.6979 5.03185 74.5099 4.71918 75.5085 4.71918C76.5072 4.71918 77.3145 5.03185 77.9305 5.65718C78.5559 6.27318 78.8685 7.05718 78.8685 8.00918C78.8685 8.96118 78.5559 9.74985 77.9305 10.3752C77.3145 10.9912 76.5072 11.2992 75.5085 11.2992C74.5192 11.2992 73.7072 10.9912 73.0725 10.3752ZM73.9545 6.39918C73.5439 6.80985 73.3385 7.34651 73.3385 8.00918C73.3385 8.67185 73.5392 9.20851 73.9405 9.61918C74.3512 10.0392 74.8739 10.2492 75.5085 10.2492C76.1432 10.2492 76.6612 10.0438 77.0625 9.63318C77.4732 9.21318 77.6785 8.67185 77.6785 8.00918C77.6785 7.36518 77.4732 6.82851 77.0625 6.39918C76.6612 5.97918 76.1432 5.76918 75.5085 5.76918C74.8739 5.76918 74.3559 5.97918 73.9545 6.39918ZM83.6291 11.1592V4.85918C83.6758 4.85918 83.7411 4.85918 83.8251 4.85918C83.9091 4.84985 84.0304 4.84518 84.1891 4.84518C84.3478 4.83585 84.4924 4.83118 84.6231 4.83118C85.3138 4.81251 85.7431 4.80318 85.9111 4.80318C87.7218 4.80318 88.6271 5.34451 88.6271 6.42718C88.6271 6.80051 88.5104 7.12251 88.2771 7.39318C88.0438 7.65451 87.7404 7.81318 87.3671 7.86918V7.89718C88.3471 8.07451 88.8371 8.56918 88.8371 9.38118C88.8371 10.6038 87.8711 11.2152 85.9391 11.2152C85.8458 11.2152 85.4351 11.2058 84.7071 11.1872C84.5671 11.1872 84.4131 11.1825 84.2451 11.1732C84.0771 11.1732 83.9464 11.1685 83.8531 11.1592C83.7598 11.1592 83.6851 11.1592 83.6291 11.1592ZM86.0931 8.33118H84.7491V10.2632C85.4211 10.2912 85.8504 10.3052 86.0371 10.3052C87.1104 10.3052 87.6471 9.96918 87.6471 9.29718C87.6471 8.65318 87.1291 8.33118 86.0931 8.33118ZM85.9951 5.71318C85.7244 5.71318 85.3091 5.72718 84.7491 5.75518V7.63118H86.1631C86.5458 7.63118 86.8538 7.54251 87.0871 7.36518C87.3204 7.18785 87.4371 6.94985 87.4371 6.65118C87.4371 6.02585 86.9564 5.71318 85.9951 5.71318ZM91.0091 5.47518C91.0091 5.27918 91.0837 5.10651 91.2331 4.95718C91.3917 4.80785 91.5831 4.73318 91.8071 4.73318C92.0031 4.73318 92.1757 4.80785 92.3251 4.95718C92.4744 5.10651 92.5491 5.27918 92.5491 5.47518C92.5491 5.69918 92.4791 5.89051 92.3391 6.04918C92.1991 6.19851 92.0217 6.27318 91.8071 6.27318C91.5831 6.27318 91.3917 6.19851 91.2331 6.04918C91.0837 5.89051 91.0091 5.69918 91.0091 5.47518ZM91.0091 10.4032C91.0091 10.2072 91.0837 10.0345 91.2331 9.88518C91.3917 9.73585 91.5831 9.66118 91.8071 9.66118C92.0031 9.66118 92.1757 9.73585 92.3251 9.88518C92.4744 10.0345 92.5491 10.2072 92.5491 10.4032C92.5491 10.6272 92.4791 10.8185 92.3391 10.9772C92.1991 11.1265 92.0217 11.2012 91.8071 11.2012C91.5831 11.2012 91.3917 11.1265 91.2331 10.9772C91.0837 10.8185 91.0091 10.6272 91.0091 10.4032Z" fill="#32445F"/>
<path d="M26.854 30.9019C27.2033 30.9019 27.5626 31.0615 27.9318 31.3909C28.7302 32.0894 29.6582 32.4387 30.7161 32.4387C31.724 32.4387 32.6321 32.1194 33.4404 31.4807C34.2488 30.842 34.7877 30.0337 35.0471 29.0657H30.2869C29.9975 29.0657 29.7381 28.9559 29.4886 28.7463C29.2391 28.5367 29.1194 28.2673 29.1194 27.948C29.1194 27.6286 29.2291 27.3492 29.4587 27.1396C29.6782 26.9201 29.9576 26.8103 30.2969 26.8103H35.097C34.8475 25.8024 34.3186 24.9741 33.5103 24.3155C32.702 23.6668 31.7739 23.3375 30.726 23.3375C29.778 23.3375 28.9198 23.6169 28.1513 24.1757C27.8619 24.4153 27.5825 24.535 27.3131 24.535C27.0037 24.535 26.7243 24.4153 26.4948 24.1757C26.2553 23.9362 26.1355 23.6668 26.1355 23.3674C26.1355 23.0281 26.2553 22.7686 26.4948 22.5691C27.6224 21.5711 29.0495 21.0721 30.746 21.0721C32.6521 21.0721 34.2588 21.7308 35.576 23.0481C36.1948 23.6568 36.6738 24.3853 37.0031 25.2435C37.3324 26.0918 37.5021 26.98 37.5021 27.8981C37.5021 29.854 36.8534 31.4707 35.5661 32.768C34.2588 34.0753 32.6521 34.724 30.756 34.724C29.8578 34.724 28.9996 34.5543 28.1613 34.215C27.3231 33.8757 26.6045 33.3867 25.9758 32.7481C25.8162 32.5884 25.7363 32.3688 25.7363 32.0994C25.7363 31.79 25.8561 31.5106 26.0956 31.2811C26.3052 31.0216 26.5646 30.9019 26.854 30.9019ZM51.1839 21.631C51.3834 21.2817 51.6728 21.0921 52.062 21.0522C52.4213 21.0522 52.7207 21.162 52.9702 21.3715C53.2097 21.5811 53.3294 21.8505 53.3294 22.1699V33.6662C53.3294 33.9755 53.2197 34.225 53.0001 34.4046C52.7806 34.5843 52.5011 34.6741 52.1718 34.6741C51.8525 34.6741 51.583 34.5843 51.3735 34.4146C51.1639 34.245 51.0541 33.9955 51.0342 33.6861V26.1616L47.6012 31.5206C47.5414 31.6404 47.4116 31.79 47.222 31.9397C47.0324 32.0994 46.8029 32.1693 46.5434 32.1693C46.1442 32.1693 45.8049 31.9597 45.5355 31.5505L42.0826 26.1616V33.6961C42.0726 33.9955 41.9529 34.235 41.7333 34.4046C41.5138 34.5743 41.2543 34.6641 40.945 34.6641C40.6356 34.6641 40.3662 34.5743 40.1466 34.3847C39.9271 34.1951 39.8073 33.9656 39.8073 33.6762V22.1998C39.8073 21.8905 39.9071 21.621 40.1167 21.3915C40.3262 21.162 40.5957 21.0422 40.925 21.0422C41.3641 21.0422 41.7134 21.2618 41.9928 21.6909L46.5434 29.0657L51.1839 21.631ZM65.8736 21.142C66.1729 21.142 66.4124 21.2418 66.6021 21.4414C66.7917 21.641 66.8815 21.8905 66.8815 22.1898V33.7161C66.8815 33.9556 66.7717 34.1751 66.5621 34.3647C66.3526 34.5643 66.0731 34.6641 65.7239 34.6641C65.3746 34.6641 65.0952 34.5643 64.8956 34.3747C64.686 34.1851 64.5862 33.9656 64.5862 33.7161V23.4572H58.8979V33.7161C58.8979 33.9755 58.7882 34.2051 58.5786 34.3847C58.369 34.5743 58.0896 34.6641 57.7403 34.6641C57.421 34.6641 57.1416 34.5743 56.922 34.4046C56.7025 34.235 56.5827 34.0055 56.5827 33.7161V22.1898C56.5827 21.9204 56.6925 21.6709 56.912 21.4613C57.1316 21.2518 57.3711 21.142 57.6505 21.142H65.8736ZM80.3537 21.5112C80.5633 21.7008 80.673 21.9603 80.673 22.2996V33.4366C80.673 33.756 80.5633 34.0354 80.3437 34.245C80.1242 34.4645 79.8547 34.5743 79.5354 34.5743C79.1961 34.5743 78.9266 34.4645 78.7171 34.255C78.5075 34.0454 78.3977 33.766 78.3977 33.4366V25.6727L72.2504 34.1252C72.0907 34.3448 71.8712 34.4945 71.6017 34.5543C71.3323 34.6142 71.0728 34.5843 70.8233 34.4645C70.6138 34.3647 70.4342 34.215 70.3044 34.0055C70.1647 33.7959 70.0949 33.5863 70.0949 33.3568V22.13C70.0949 21.8206 70.1946 21.5811 70.4042 21.4015C70.6138 21.2318 70.9032 21.142 71.2724 21.142C71.5918 21.142 71.8612 21.2318 72.0608 21.4114C72.2704 21.5911 72.3702 21.8306 72.3702 22.13V30.0237L78.4875 21.641C78.6871 21.3416 78.9765 21.1819 79.3558 21.152C79.7549 21.132 80.0843 21.2518 80.3537 21.5112ZM89.884 32.4287C90.9119 32.4287 91.84 32.0794 92.6683 31.3809C92.9876 31.0615 93.3469 30.8919 93.7361 30.8919C94.0255 30.8919 94.285 31.0116 94.5345 31.2412C94.7839 31.4707 94.9037 31.7401 94.9037 32.0495C94.9037 32.319 94.8139 32.5485 94.6442 32.7181C93.3269 34.0354 91.7302 34.6941 89.8641 34.6941C87.9979 34.6941 86.4012 34.0354 85.0839 32.7181C83.7766 31.4408 83.128 29.8241 83.128 27.8681C83.128 26.96 83.2976 26.0818 83.6269 25.2336C83.9662 24.3853 84.4453 23.6568 85.064 23.0281C86.3912 21.7008 87.9979 21.0322 89.8641 21.0322C91.5805 21.0322 92.9976 21.5312 94.0954 22.5291C94.3448 22.7487 94.4646 23.0281 94.4646 23.3674C94.4646 23.6568 94.3548 23.9163 94.1353 24.1558C93.9157 24.3953 93.6563 24.515 93.3569 24.515C93.0874 24.515 92.7781 24.4053 92.4388 24.1957C91.5207 23.6069 90.6624 23.3175 89.8641 23.3175C88.6366 23.3175 87.5788 23.7666 86.7106 24.6647C85.8424 25.5629 85.4033 26.6207 85.4033 27.8582C85.4033 29.1056 85.8424 30.1734 86.7106 31.0815C87.6087 31.9797 88.6566 32.4287 89.884 32.4287Z" fill="#32445F"/>
<path d="M9.78027 29.5254L22.7535 16.8516L15.3687 39.1057L9.78027 29.5254Z" fill="#0097D1"/>
<path d="M9.87963 29.625L22.7531 16.9512L0 23.7372L9.87963 29.625Z" fill="#0EB1F2"/>
<path d="M2.99316 36.3111L8.58164 30.7227L11.2761 35.413L2.99316 36.3111Z" fill="#0097D1"/>
<path d="M3.09375 36.3114L8.58243 30.8227L3.9919 27.9287L3.09375 36.3114Z" fill="#0EB1F2"/>
</svg>
