<svg width="50" height="50" viewBox="0 0 50 50" fill="none" xmlns="http://www.w3.org/2000/svg">
<circle cx="25" cy="25" r="25" fill="#7964FF"/>
<path d="M28.7656 24.6401C28.6191 24.7866 28.3819 24.7866 28.2354 24.6401L25.0004 21.4051L21.7656 24.6401C21.6191 24.7866 21.3819 24.7866 21.2354 24.6401L19.6104 23.0151C19.4639 22.8686 19.4639 22.6314 19.6104 22.4849L24.7354 17.3599C24.8084 17.2864 24.9044 17.2499 25.0004 17.2499C25.0964 17.2499 25.1924 17.2864 25.2656 17.3596L30.3906 22.4846C30.5371 22.6311 30.5371 22.8684 30.3906 23.0149L28.7656 24.6401Z" fill="white"/>
<path d="M28.7656 32.6401C28.6191 32.7866 28.3819 32.7866 28.2354 32.6401L25.0004 29.4051L21.7656 32.6401C21.6191 32.7866 21.3819 32.7866 21.2354 32.6401L19.6104 31.0151C19.4639 30.8686 19.4639 30.6314 19.6104 30.4849L24.7354 25.3599C24.8084 25.2864 24.9044 25.2499 25.0004 25.2499C25.0964 25.2499 25.1924 25.2864 25.2656 25.3596L30.3906 30.4846C30.5371 30.6311 30.5371 30.8684 30.3906 31.0149L28.7656 32.6401Z" fill="white"/>
</svg>
