<svg width="170" height="170" viewBox="0 0 170 170" fill="none" xmlns="http://www.w3.org/2000/svg">
<g filter="url(#filter0_d_6_20654)">
<rect x="55" y="105" width="50" height="50" rx="17" transform="rotate(-90 55 105)" fill="white"/>
</g>
<path fill-rule="evenodd" clip-rule="evenodd" d="M68.6735 76.0356C68.2267 77.3093 68 78.6563 68 80.0033C68 81.6905 68.4601 83.3309 69.327 84.778C71.1876 87.8855 74.6152 89.6994 78.2095 89.7527C78.2629 89.7527 78.3229 89.7527 78.3762 89.7527L78.3829 89.7527C78.4362 89.7527 78.4962 89.7527 78.5496 89.7527L78.5829 89.7527C78.6296 89.7527 78.683 89.7527 78.7296 89.746L78.803 89.746L78.863 89.746C80.5168 89.6794 82.1373 89.2392 83.591 88.4457L83.6844 88.3923C84.1445 88.1389 84.5779 87.8522 84.9914 87.5321C85.1248 87.4321 85.3181 87.4454 85.4315 87.5654C85.5449 87.6921 85.5515 87.8789 85.4315 88.0056C85.0314 88.4523 84.5913 88.8658 84.1178 89.2326L84.0845 89.2592C84.0445 89.2926 84.0044 89.3193 83.9644 89.3526L83.8777 89.4193L83.8444 89.446C82.3707 90.5263 80.6435 91.1864 78.8163 91.2998L78.7763 91.2998C78.723 91.3065 78.663 91.3065 78.6096 91.3065L78.5896 91.3065C78.5363 91.3065 78.4829 91.3131 78.4296 91.3131L78.3829 91.3131C78.3229 91.3131 78.2695 91.3131 78.2095 91.3131C77.5026 91.3131 76.7958 91.2331 76.1023 91.0731C76.0356 91.0597 75.9689 91.0997 75.9489 91.1664C75.9289 91.2331 75.9689 91.3065 76.0289 91.3265C77.3026 91.7733 78.6496 92 80.0033 92C81.6905 92 83.3309 91.5399 84.778 90.673C87.8855 88.8124 89.6994 85.3848 89.7527 81.7905C89.7527 81.7371 89.7527 81.6771 89.7527 81.6238L89.7527 81.6171C89.7527 81.5638 89.7527 81.5038 89.7527 81.4504L89.7527 81.4171C89.7527 81.3704 89.7527 81.317 89.746 81.2704L89.746 81.197L89.746 81.137C89.6794 79.4832 89.2392 77.8627 88.4457 76.409L88.3923 76.3156C88.1389 75.8555 87.8522 75.4221 87.5321 75.0086C87.4321 74.8752 87.4454 74.6819 87.5654 74.5685C87.6921 74.4551 87.8789 74.4485 88.0056 74.5685C88.4523 74.9686 88.8658 75.4087 89.2326 75.8822L89.2592 75.9155C89.2926 75.9555 89.3193 75.9956 89.3526 76.0356L89.4193 76.1223L89.446 76.1556C90.5263 77.6293 91.1864 79.3565 91.2998 81.1837L91.2998 81.2237C91.3065 81.277 91.3065 81.337 91.3065 81.3904L91.3065 81.4104C91.3065 81.4637 91.3131 81.5171 91.3131 81.5704L91.3131 81.6171C91.3131 81.6771 91.3131 81.7305 91.3131 81.7905C91.3131 82.4974 91.2331 83.2042 91.0731 83.8977C91.0597 83.9644 91.0998 84.0311 91.1664 84.0511C91.2331 84.0711 91.3065 84.0311 91.3265 83.9711C91.7733 82.6974 92 81.3504 92 79.9967C92 78.3095 91.5399 76.6691 90.673 75.222C88.8124 72.1145 85.3848 70.3006 81.7905 70.2473C81.7371 70.2473 81.6771 70.2473 81.6238 70.2473L81.6171 70.2473C81.5638 70.2473 81.5037 70.2473 81.4504 70.2473L81.4171 70.2473C81.3704 70.2473 81.317 70.2473 81.2704 70.254L81.197 70.254L81.137 70.254C79.4832 70.3206 77.8627 70.7608 76.409 71.5543L76.3156 71.6077C75.8555 71.8611 75.4221 72.1478 75.0086 72.4679C74.8752 72.5679 74.6819 72.5546 74.5685 72.4346C74.4551 72.3079 74.4485 72.1211 74.5685 71.9944C74.9686 71.5477 75.4087 71.1342 75.8822 70.7674L75.9155 70.7408C75.9555 70.7074 75.9956 70.6807 76.0356 70.6474L76.1223 70.5807L76.1556 70.554C77.6293 69.4737 79.3565 68.8136 81.1837 68.7002L81.2237 68.7002C81.277 68.6935 81.337 68.6935 81.3904 68.6935L81.4104 68.6935C81.4637 68.6935 81.5171 68.6869 81.5704 68.6869L81.6171 68.6869C81.6771 68.6869 81.7305 68.6869 81.7905 68.6869C82.4974 68.6869 83.2042 68.7669 83.8977 68.9269C83.9644 68.9403 84.0311 68.9002 84.0511 68.8336C84.0711 68.7669 84.0311 68.6935 83.9711 68.6735C82.6974 68.2267 81.3504 68 79.9967 68C78.3095 68 76.6691 68.4601 75.222 69.327C72.1145 71.1876 70.3006 74.6152 70.2473 78.2095C70.2473 78.2629 70.2473 78.3229 70.2473 78.3762L70.2473 78.3829C70.2473 78.4362 70.2473 78.4963 70.2473 78.5496L70.2473 78.5829C70.2473 78.6296 70.2473 78.683 70.254 78.7296L70.254 78.803L70.254 78.863C70.3206 80.5168 70.7608 82.1373 71.5543 83.591L71.6077 83.6844C71.8611 84.1445 72.1478 84.5779 72.4679 84.9914C72.5679 85.1248 72.5546 85.3181 72.4346 85.4315C72.3079 85.5449 72.1211 85.5515 71.9944 85.4315C71.5477 85.0314 71.1342 84.5913 70.7674 84.1178L70.7408 84.0845C70.7074 84.0445 70.6807 84.0044 70.6474 83.9644L70.5807 83.8777L70.554 83.8444C69.4737 82.3707 68.8136 80.6435 68.7002 78.8163L68.7002 78.7763C68.6935 78.723 68.6935 78.663 68.6935 78.6096L68.6935 78.5896C68.6935 78.5363 68.6869 78.4829 68.6869 78.4296L68.6869 78.3829C68.6869 78.3229 68.6869 78.2695 68.6869 78.2095C68.6869 78.1228 68.6869 78.0361 68.6935 77.9494L68.6935 77.9361C68.6935 77.8561 68.7002 77.7694 68.7069 77.6894L68.7069 77.6694C68.7135 77.5893 68.7202 77.5093 68.7269 77.4293L68.7269 77.4093C68.7335 77.3293 68.7402 77.2492 68.7535 77.1692L68.7535 77.1492C68.7602 77.0692 68.7735 76.9892 68.7802 76.9158L68.7869 76.8891C68.8002 76.8158 68.8069 76.7424 68.8202 76.6691L68.8269 76.6357C68.8402 76.5624 68.8536 76.4957 68.8669 76.4223L68.8736 76.3823C68.8869 76.3156 68.9002 76.2423 68.9203 76.1756L68.9336 76.1289C68.9336 76.1223 68.9336 76.1156 68.9403 76.1089C68.9536 76.0422 68.9136 75.9755 68.8469 75.9555C68.7669 75.9289 68.6935 75.9689 68.6735 76.0356ZM74.8686 80.1967C74.8686 80.13 74.8619 80.07 74.8619 80.0033C74.8619 76.549 77.4893 73.4615 81.0436 73.4615C81.2103 73.4615 81.377 73.4682 81.5371 73.4815C81.9972 73.5215 82.4507 73.6149 82.8841 73.7549L82.9108 73.7616L82.9842 73.7883L83.0842 73.8216L83.1575 73.8483L83.1909 73.8616C83.3109 73.915 83.3776 74.0417 83.3443 74.1684C83.3109 74.2951 83.1976 74.3751 83.0709 74.3684L82.9842 74.3618L82.8375 74.3484L82.7108 74.3351L82.5374 74.3218L82.3306 74.3151L82.1906 74.3151L82.0506 74.3151C81.9906 74.3151 81.9305 74.3151 81.8705 74.3151L81.8572 74.3151C81.8038 74.3151 81.7438 74.3151 81.6905 74.3218L81.6771 74.3218C81.6305 74.3218 81.5838 74.3284 81.5438 74.3284C80.9503 74.3618 80.3568 74.4551 79.7766 74.6085C79.7099 74.6285 79.6699 74.6885 79.6832 74.7552C79.6899 74.8219 79.7499 74.8686 79.8166 74.8686C79.8833 74.8686 79.9433 74.8619 80.01 74.8619C83.4643 74.8619 86.5518 77.4893 86.5518 81.0436C86.5518 81.2103 86.5451 81.377 86.5318 81.5371C86.4918 81.9972 86.3984 82.4507 86.2584 82.8841L86.2517 82.9108L86.2251 82.9842L86.1917 83.0842L86.165 83.1575L86.1517 83.1909C86.0984 83.3109 85.9717 83.3776 85.845 83.3443C85.7183 83.3109 85.6382 83.1976 85.6449 83.0709L85.6516 82.9842L85.6649 82.8375L85.6782 82.7108L85.6916 82.5374L85.6982 82.3306L85.6982 82.1906L85.6982 82.0506C85.6982 81.9906 85.6982 81.9305 85.6982 81.8705L85.6982 81.8572C85.6982 81.8038 85.6982 81.7438 85.6916 81.6905L85.6916 81.6771C85.6916 81.6305 85.6849 81.5838 85.6849 81.5438C85.6516 80.9503 85.5582 80.3568 85.4048 79.7766C85.3848 79.7099 85.3248 79.6699 85.2581 79.6832C85.1914 79.6899 85.1448 79.7499 85.1448 79.8166C85.1448 79.8833 85.1514 79.9433 85.1514 80.01C85.1514 83.4643 82.524 86.5518 78.9697 86.5518C78.803 86.5518 78.6363 86.5452 78.4762 86.5318C78.0161 86.4918 77.5627 86.3984 77.1292 86.2584L77.1025 86.2517L77.0292 86.2251L76.9291 86.1917L76.8558 86.165L76.8224 86.1517C76.7024 86.0984 76.6357 85.9717 76.6691 85.845C76.7024 85.7183 76.8158 85.6382 76.9425 85.6449L77.0292 85.6516L77.1759 85.6649L77.3026 85.6782L77.476 85.6916L77.6827 85.6982L77.8227 85.6982L77.9628 85.6982C78.0228 85.6982 78.0828 85.6982 78.1428 85.6982L78.1562 85.6982C78.2095 85.6982 78.2695 85.6982 78.3229 85.6916L78.3362 85.6916C78.3829 85.6916 78.4296 85.6849 78.4696 85.6849C79.0631 85.6516 79.6566 85.5582 80.2367 85.4048C80.3034 85.3848 80.3434 85.3248 80.3301 85.2581C80.3234 85.1914 80.2634 85.1448 80.1967 85.1448C80.13 85.1448 80.07 85.1514 80.0033 85.1514C76.549 85.1514 73.4615 82.524 73.4615 78.9697C73.4615 78.803 73.4682 78.6363 73.4815 78.4762C73.5215 78.0161 73.6149 77.5627 73.7549 77.1292L73.7616 77.1025L73.7883 77.0292L73.8216 76.9291L73.8483 76.8558L73.8616 76.8224C73.915 76.7024 74.0417 76.6357 74.1684 76.6691C74.2951 76.7024 74.3751 76.8158 74.3684 76.9425L74.3618 77.0292L74.3484 77.1759L74.3351 77.3026L74.3218 77.476L74.3151 77.6827L74.3151 77.8227L74.3151 77.9628C74.3151 78.0228 74.3151 78.0828 74.3151 78.1428L74.3151 78.1562C74.3151 78.2095 74.3151 78.2695 74.3218 78.3229L74.3218 78.3362C74.3218 78.3829 74.3284 78.4296 74.3284 78.4696C74.3618 79.0631 74.4551 79.6566 74.6085 80.2367C74.6285 80.3034 74.6885 80.3434 74.7552 80.3301C74.8219 80.3168 74.8686 80.2634 74.8686 80.1967Z" fill="#7964FF"/>
<defs>
<filter id="filter0_d_6_20654" x="0" y="0" width="170" height="170" filterUnits="userSpaceOnUse" color-interpolation-filters="sRGB">
<feFlood flood-opacity="0" result="BackgroundImageFix"/>
<feColorMatrix in="SourceAlpha" type="matrix" values="0 0 0 0 0 0 0 0 0 0 0 0 0 0 0 0 0 0 127 0" result="hardAlpha"/>
<feOffset dx="5" dy="5"/>
<feGaussianBlur stdDeviation="30"/>
<feComposite in2="hardAlpha" operator="out"/>
<feColorMatrix type="matrix" values="0 0 0 0 0.194688 0 0 0 0 0.265146 0 0 0 0 0.370833 0 0 0 0.25 0"/>
<feBlend mode="normal" in2="BackgroundImageFix" result="effect1_dropShadow_6_20654"/>
<feBlend mode="normal" in="SourceGraphic" in2="effect1_dropShadow_6_20654" result="shape"/>
</filter>
</defs>
</svg>
