<svg width="220" height="220" viewBox="0 0 220 220" fill="none" xmlns="http://www.w3.org/2000/svg">
<g filter="url(#filter0_d_3_17622)">
<rect x="55" y="55" width="100" height="100" rx="28" fill="white"/>
</g>
<path fill-rule="evenodd" clip-rule="evenodd" d="M112.929 82.347C110.381 81.4535 107.687 81 104.993 81C101.619 81 98.3381 81.9203 95.444 83.6541C89.229 87.3751 85.6013 94.2303 85.4946 101.419C85.4946 101.526 85.4946 101.646 85.4946 101.752V101.766C85.4946 101.872 85.4946 101.992 85.4946 102.099V102.166C85.4946 102.259 85.4946 102.366 85.5079 102.459V102.606V102.726C85.6413 106.034 86.5215 109.275 88.1086 112.182L88.2153 112.369C88.7221 113.289 89.2956 114.156 89.9358 114.983C90.1359 115.25 90.1092 115.636 89.8691 115.863C89.6157 116.09 89.2423 116.103 88.9889 115.863C88.0953 115.063 87.2684 114.183 86.5349 113.236L86.4815 113.169C86.4148 113.089 86.3615 113.009 86.2948 112.929L86.1614 112.755L86.1081 112.689C83.9475 109.741 82.6271 106.287 82.4004 102.633V102.553C82.3871 102.446 82.3871 102.326 82.3871 102.219V102.179C82.3871 102.073 82.3737 101.966 82.3737 101.859V101.766C82.3737 101.646 82.3737 101.539 82.3737 101.419C82.3737 100.005 82.5338 98.5916 82.8538 97.2045C82.8805 97.0711 82.8005 96.9378 82.6671 96.8977C82.5338 96.8577 82.3871 96.9378 82.347 97.0578C81.4535 99.6052 81 102.299 81 105.007C81 108.381 81.9203 111.662 83.6541 114.556C87.3751 120.771 94.2303 124.399 101.419 124.505C101.526 124.505 101.646 124.505 101.752 124.505H101.766C101.872 124.505 101.992 124.505 102.099 124.505H102.166C102.259 124.505 102.366 124.505 102.459 124.492H102.606H102.726C106.034 124.359 109.275 123.478 112.182 121.891L112.369 121.785C113.289 121.278 114.156 120.704 114.983 120.064C115.25 119.864 115.636 119.891 115.863 120.131C116.09 120.384 116.103 120.758 115.863 121.011C115.063 121.905 114.183 122.732 113.236 123.465L113.169 123.518C113.089 123.585 113.009 123.639 112.929 123.705L112.755 123.839L112.689 123.892C109.741 126.053 106.287 127.373 102.633 127.6H102.553C102.446 127.613 102.326 127.613 102.219 127.613H102.179C102.073 127.613 101.966 127.626 101.859 127.626H101.766C101.646 127.626 101.539 127.626 101.419 127.626C100.005 127.626 98.5916 127.466 97.2045 127.146C97.0711 127.119 96.9378 127.2 96.8977 127.333C96.8577 127.466 96.9378 127.613 97.0578 127.653C99.6052 128.547 102.299 129 105.007 129C108.381 129 111.662 128.08 114.556 126.346C120.771 122.625 124.399 115.77 124.505 108.581C124.505 108.474 124.505 108.354 124.505 108.248V108.234C124.505 108.128 124.505 108.008 124.505 107.901V107.834C124.505 107.741 124.505 107.634 124.492 107.541V107.394V107.274C124.359 103.966 123.478 100.725 121.891 97.818L121.785 97.6313C121.278 96.711 120.704 95.8441 120.064 95.0172C119.864 94.7505 119.891 94.3637 120.131 94.137C120.384 93.9103 120.758 93.8969 121.011 94.137C121.905 94.9372 122.732 95.8174 123.465 96.7644L123.518 96.8311C123.585 96.9111 123.639 96.9911 123.705 97.0711L123.839 97.2445L123.892 97.3112C126.053 100.259 127.373 103.713 127.6 107.367V107.447C127.613 107.554 127.613 107.674 127.613 107.781V107.821C127.613 107.927 127.626 108.034 127.626 108.141V108.234C127.626 108.354 127.626 108.461 127.626 108.581C127.626 109.995 127.466 111.408 127.146 112.795C127.119 112.929 127.2 113.062 127.333 113.102C127.466 113.142 127.613 113.062 127.653 112.942C128.547 110.395 129 107.701 129 104.993C129 101.619 128.08 98.3381 126.346 95.444C122.625 89.229 115.77 85.6013 108.581 85.4946C108.474 85.4946 108.354 85.4946 108.248 85.4946H108.234C108.128 85.4946 108.007 85.4946 107.901 85.4946H107.834C107.741 85.4946 107.634 85.4946 107.541 85.5079H107.394H107.274C103.966 85.6413 100.725 86.5215 97.818 88.1086L97.6313 88.2153C96.711 88.7221 95.8441 89.2956 95.0172 89.9358C94.7505 90.1359 94.3637 90.1092 94.137 89.8691C93.9103 89.6157 93.8969 89.2423 94.137 88.9889C94.9372 88.0953 95.8174 87.2684 96.7644 86.5349L96.8311 86.4815C96.9111 86.4148 96.9911 86.3615 97.0711 86.2948L97.2445 86.1614L97.3112 86.1081C100.259 83.9475 103.713 82.6271 107.367 82.4004H107.447C107.554 82.3871 107.674 82.3871 107.781 82.3871H107.821C107.927 82.3871 108.034 82.3737 108.141 82.3737H108.234C108.354 82.3737 108.461 82.3737 108.581 82.3737C108.754 82.3737 108.928 82.3737 109.101 82.3871H109.128C109.288 82.3871 109.461 82.4004 109.621 82.4137H109.661C109.821 82.4271 109.981 82.4404 110.141 82.4537H110.181C110.341 82.4671 110.502 82.4804 110.662 82.5071H110.702C110.862 82.5204 111.022 82.5471 111.168 82.5604L111.222 82.5738C111.368 82.6004 111.515 82.6138 111.662 82.6405L111.729 82.6538C111.875 82.6805 112.009 82.7071 112.155 82.7338L112.235 82.7472C112.369 82.7738 112.515 82.8005 112.649 82.8405L112.742 82.8672C112.755 82.8672 112.769 82.8672 112.782 82.8805C112.916 82.9072 113.049 82.8272 113.089 82.6938C113.142 82.5338 113.062 82.3871 112.929 82.347ZM104.607 94.7371C104.74 94.7371 104.86 94.7238 104.993 94.7238C111.902 94.7238 118.077 99.9786 118.077 107.087C118.077 107.421 118.064 107.754 118.037 108.074C117.957 108.994 117.77 109.901 117.49 110.768L117.477 110.822L117.423 110.968L117.357 111.168L117.303 111.315L117.277 111.382C117.17 111.622 116.917 111.755 116.663 111.689C116.41 111.622 116.25 111.395 116.263 111.142L116.276 110.968L116.303 110.675L116.33 110.422L116.356 110.075L116.37 109.661V109.381V109.101C116.37 108.981 116.37 108.861 116.37 108.741V108.714C116.37 108.608 116.37 108.488 116.356 108.381V108.354C116.356 108.261 116.343 108.168 116.343 108.088C116.276 106.901 116.09 105.714 115.783 104.553C115.743 104.42 115.623 104.34 115.49 104.366C115.356 104.38 115.263 104.5 115.263 104.633C115.263 104.767 115.276 104.887 115.276 105.02C115.276 111.929 110.021 118.104 102.913 118.104C102.579 118.104 102.246 118.09 101.926 118.064C101.006 117.984 100.099 117.797 99.2317 117.517L99.1784 117.503L99.0317 117.45L98.8316 117.383L98.6849 117.33L98.6182 117.303C98.3782 117.197 98.2448 116.943 98.3115 116.69C98.3782 116.437 98.6049 116.276 98.8583 116.29L99.0317 116.303L99.3251 116.33L99.5785 116.356L99.9253 116.383L100.339 116.396H100.619H100.899C101.019 116.396 101.139 116.396 101.259 116.396H101.286C101.392 116.396 101.512 116.396 101.619 116.383H101.646C101.739 116.383 101.832 116.37 101.912 116.37C103.099 116.303 104.286 116.116 105.447 115.81C105.58 115.77 105.66 115.65 105.634 115.516C105.62 115.383 105.5 115.29 105.367 115.29C105.233 115.29 105.113 115.303 104.98 115.303C98.0714 115.303 91.8964 110.048 91.8964 102.939C91.8964 102.606 91.9097 102.273 91.9364 101.952C92.0164 101.032 92.2031 100.125 92.4832 99.2584L92.4965 99.2051L92.5499 99.0583L92.6166 98.8583L92.6699 98.7116L92.6966 98.6449C92.8033 98.4048 93.0567 98.2715 93.3101 98.3381C93.5635 98.4048 93.7235 98.6316 93.7102 98.885L93.6969 99.0583L93.6702 99.3518L93.6435 99.6052L93.6168 99.9519L93.6035 100.365V100.645V100.926C93.6035 101.046 93.6035 101.166 93.6035 101.286V101.312C93.6035 101.419 93.6035 101.539 93.6168 101.646V101.672C93.6168 101.766 93.6302 101.859 93.6302 101.939C93.6969 103.126 93.8836 104.313 94.1903 105.473C94.2303 105.607 94.3504 105.687 94.4837 105.66C94.6171 105.647 94.7105 105.527 94.7105 105.393C94.7105 105.26 94.6971 105.14 94.6971 105.007C94.6971 98.0981 99.9519 91.923 107.061 91.923C107.394 91.923 107.727 91.9364 108.048 91.963C108.968 92.0431 109.875 92.2298 110.742 92.5099L110.795 92.5232L110.942 92.5765L111.142 92.6432L111.288 92.6966L111.355 92.7233C111.595 92.83 111.729 93.0834 111.662 93.3368C111.595 93.5902 111.368 93.7502 111.115 93.7369L110.942 93.7235L110.648 93.6969L110.395 93.6702L110.048 93.6435L109.635 93.6302H109.355H109.074C108.954 93.6302 108.834 93.6302 108.714 93.6302H108.688C108.581 93.6302 108.461 93.6302 108.354 93.6435H108.328C108.234 93.6435 108.141 93.6568 108.061 93.6568C106.874 93.7235 105.687 93.9103 104.527 94.217C104.393 94.257 104.313 94.377 104.34 94.5104C104.366 94.6438 104.473 94.7371 104.607 94.7371Z" fill="#7964FF"/>
<defs>
<filter id="filter0_d_3_17622" x="0" y="0" width="220" height="220" filterUnits="userSpaceOnUse" color-interpolation-filters="sRGB">
<feFlood flood-opacity="0" result="BackgroundImageFix"/>
<feColorMatrix in="SourceAlpha" type="matrix" values="0 0 0 0 0 0 0 0 0 0 0 0 0 0 0 0 0 0 127 0" result="hardAlpha"/>
<feOffset dx="5" dy="5"/>
<feGaussianBlur stdDeviation="30"/>
<feComposite in2="hardAlpha" operator="out"/>
<feColorMatrix type="matrix" values="0 0 0 0 0.194688 0 0 0 0 0.265146 0 0 0 0 0.370833 0 0 0 0.25 0"/>
<feBlend mode="normal" in2="BackgroundImageFix" result="effect1_dropShadow_3_17622"/>
<feBlend mode="normal" in="SourceGraphic" in2="effect1_dropShadow_3_17622" result="shape"/>
</filter>
</defs>
</svg>
